<svg width="32" height="32" viewBox="0 0 32 32" fill="none" xmlns="http://www.w3.org/2000/svg">
<rect width="32" height="32" rx="16" fill="#FECF58"/>
<path d="M9.59961 15.6253C9.60198 12.3022 12.2921 9.60616 15.6063 9.60498C18.9424 9.6038 21.6467 12.3075 21.6473 15.6442C21.6473 18.959 18.9299 21.658 15.5992 21.6509C12.2821 21.6438 9.59724 18.9471 9.59961 15.6253Z" fill="#F8F8F8"/>
<path d="M8.8409 7.7959C9.13251 7.8095 9.38567 7.89823 9.58915 8.09993C9.93517 8.44241 10.2848 8.78134 10.6207 9.13387C11.0253 9.55857 11.0164 10.2033 10.6142 10.6108C10.2084 11.0225 9.56904 11.0456 9.13842 10.6428C8.77228 10.3003 8.41679 9.94541 8.0755 9.57809C7.76614 9.24507 7.70049 8.8464 7.8874 8.4288C8.07017 8.02008 8.40851 7.82488 8.8409 7.79649V7.7959Z" fill="#F8F8F8"/>
<path d="M7.78809 22.4405C7.79518 22.1187 7.88332 21.8715 8.07674 21.6733C8.4275 21.3143 8.77648 20.9535 9.14321 20.6122C9.5756 20.2093 10.2138 20.2348 10.6178 20.6488C11.0183 21.0593 11.0242 21.7005 10.6178 22.1258C10.2819 22.4778 9.93819 22.8238 9.58447 23.158C9.25382 23.4703 8.8587 23.5472 8.43814 23.3674C8.01759 23.1881 7.81529 22.8468 7.78809 22.4405Z" fill="#F8F8F8"/>
<path d="M21.3524 20.3237C21.6582 20.3356 21.9113 20.4225 22.1154 20.6242C22.462 20.9661 22.8104 21.3062 23.1476 21.657C23.5528 22.0793 23.5474 22.7229 23.1488 23.1351C22.7507 23.5468 22.1024 23.574 21.673 23.1736C21.3009 22.827 20.9389 22.4673 20.5947 22.0929C20.2936 21.7652 20.235 21.3707 20.4154 20.9614C20.5964 20.5509 20.9348 20.3569 21.3518 20.3237H21.3524Z" fill="#F8F8F8"/>
<path d="M20.3203 9.90393C20.3262 9.56855 20.4297 9.32249 20.6297 9.1196C20.9609 8.78363 21.2904 8.44529 21.6317 8.11879C22.0788 7.69054 22.7254 7.69409 23.1412 8.11405C23.5552 8.53284 23.5517 9.18408 23.1234 9.62415C22.7892 9.96781 22.4544 10.3121 22.1043 10.6386C21.7719 10.9491 21.3738 11.0201 20.9562 10.8344C20.5404 10.6492 20.3351 10.3097 20.3203 9.90334V9.90393Z" fill="#F8F8F8"/>
<path d="M14.562 24.4825C14.562 24.2465 14.5584 24.0104 14.5626 23.775C14.5732 23.1877 15.0186 22.7281 15.5882 22.7133C16.1697 22.6979 16.6553 23.1362 16.6795 23.7324C16.7002 24.2328 16.7002 24.735 16.6795 25.2354C16.6553 25.8305 16.1679 26.2694 15.587 26.2534C15.0162 26.2374 14.5726 25.779 14.5626 25.1905C14.5584 24.9545 14.562 24.7191 14.562 24.4831V24.4825Z" fill="#F8F8F8"/>
<path d="M14.562 6.77016C14.562 6.53415 14.5584 6.29814 14.5626 6.06273C14.5726 5.47418 15.0174 5.01518 15.587 5.00039C16.1691 4.98501 16.6553 5.42272 16.6795 6.01836C16.6996 6.51877 16.7002 7.02096 16.6795 7.52137C16.6547 8.1176 16.1679 8.55649 15.5876 8.54052C15.0085 8.52455 14.5702 8.06141 14.562 7.45571C14.559 7.22739 14.562 6.99907 14.562 6.77016Z" fill="#F8F8F8"/>
<path d="M24.488 14.5661C24.7311 14.5661 24.9748 14.5608 25.2179 14.5673C25.8052 14.5827 26.2636 15.0565 26.2595 15.6385C26.2554 16.2105 25.7999 16.6772 25.2208 16.6878C24.7346 16.6967 24.2472 16.6967 23.761 16.6878C23.1731 16.6772 22.7141 16.1998 22.7188 15.6184C22.7235 15.0488 23.1819 14.5821 23.7586 14.5667C24.0018 14.5602 24.2454 14.5655 24.4886 14.5655L24.488 14.5661Z" fill="#F8F8F8"/>
<path d="M6.76505 16.6896C6.52194 16.6896 6.27825 16.6949 6.03514 16.6884C5.45784 16.6724 5.00297 16.2063 5.00001 15.635C4.99706 15.0535 5.45665 14.5779 6.04401 14.5673C6.52313 14.559 7.00224 14.5602 7.48136 14.5673C8.07167 14.5756 8.53659 15.044 8.54073 15.6219C8.54428 16.201 8.0835 16.6736 7.49496 16.689C7.25185 16.6955 7.00875 16.6902 6.76505 16.6902V16.6896Z" fill="#F8F8F8"/>
</svg>
