<svg width="32" height="32" viewBox="0 0 32 32" fill="none" xmlns="http://www.w3.org/2000/svg">
<rect width="32" height="32" rx="16" fill="#C388FF"/>
<path d="M16.4095 24.1025C14.088 24.1025 11.767 24.1041 9.44549 24.1019C8.21723 24.1008 7.23813 23.2747 7.02958 22.0644C7.00323 21.9101 7.00104 21.7509 7.00104 21.5934C6.99994 18.7374 6.99939 15.8809 7.00104 13.0244C7.00159 11.5407 8.03776 10.5087 9.52287 10.5071C9.68038 10.5071 9.83789 10.5032 9.9954 10.5076C10.5091 10.5213 10.8686 10.2924 11.0936 9.83134C11.3186 9.37026 11.5573 8.91631 11.7835 8.45577C12.267 7.47047 13.0545 6.99402 14.1516 7.00006C15.6856 7.00829 17.219 7.0017 18.7529 7.00225C19.7973 7.0028 20.5575 7.46828 21.0294 8.40143C21.2698 8.87733 21.514 9.35214 21.7484 9.83079C21.9734 10.2908 22.3329 10.5114 22.8466 10.5092C23.2011 10.5081 23.5644 10.4977 23.9096 10.5658C25.0699 10.7941 25.8366 11.7575 25.8393 12.9623C25.8442 15.1064 25.8409 17.2504 25.8409 19.3945C25.8409 20.1344 25.8431 20.8743 25.8409 21.6137C25.836 23.0623 24.7982 24.1003 23.3542 24.1014C21.0399 24.1025 18.7255 24.1014 16.4111 24.1014L16.4095 24.1025ZM16.4095 21.0297C18.9615 21.0275 21.0185 18.9729 21.0223 16.4221C21.0256 13.8966 18.945 11.8173 16.4188 11.8222C13.8734 11.8272 11.8147 13.896 11.818 16.4452C11.8213 18.9691 13.8871 21.0319 16.4095 21.0297Z" fill="#F8F8F8"/>
<path d="M16.3511 19.8564C14.4138 19.8623 12.8436 18.2993 12.8418 16.3634C12.84 14.4317 14.4144 12.8553 16.3435 12.8564C18.2656 12.8576 19.8365 14.4247 19.8418 16.3448C19.847 18.2846 18.2902 19.8506 16.3511 19.8558V19.8564Z" fill="#F8F8F8"/>
</svg>
