<svg width="32" height="32" viewBox="0 0 32 32" fill="none" xmlns="http://www.w3.org/2000/svg">
<rect width="32" height="32" rx="16" fill="#2443B1"/>
<path d="M6 15.014C6.05067 14.651 6.08739 14.286 6.15357 13.9261C6.62204 11.3811 7.90748 9.32829 9.92354 7.72434C10.8444 6.99165 11.8698 6.44459 12.9779 6.04954C13.1402 5.99163 13.2933 5.95699 13.42 6.10642C13.5539 6.26516 13.4851 6.4146 13.3905 6.56661C12.2891 8.33293 11.8196 10.2554 12.0104 12.3263C12.1966 14.3418 12.9846 16.1097 14.3269 17.619C15.9567 19.452 18.0043 20.541 20.4216 20.9247C22.0602 21.1853 23.674 21.0457 25.2552 20.542C25.2981 20.5286 25.3421 20.5167 25.384 20.5007C25.5365 20.4427 25.6658 20.4779 25.7614 20.6072C25.854 20.7323 25.8411 20.8662 25.7485 20.9836C25.3323 21.5084 24.9507 22.0674 24.4863 22.5457C22.6569 24.433 20.4149 25.4914 17.8022 25.7675C17.675 25.781 17.5478 25.7981 17.4211 25.813H16.0276C15.9779 25.8022 15.9288 25.7856 15.8787 25.782C13.5725 25.6114 11.5104 24.8136 9.7255 23.3425C7.80923 21.7628 6.59308 19.7561 6.1515 17.3C6.08687 16.9406 6.05067 16.5761 6.00104 16.2136C6.00104 15.8134 6.00104 15.4137 6.00104 15.0135L6 15.014Z" fill="#F8F8F8"/>
<path d="M23.9623 11.5673C23.9633 11.7477 23.8345 11.8661 23.6174 11.8785C23.2053 11.9023 22.8573 12.0657 22.6448 12.4178C22.5264 12.6138 22.4695 12.8548 22.4224 13.0833C22.379 13.2932 22.2828 13.4272 22.1024 13.4251C21.9229 13.423 21.8102 13.2943 21.7952 13.075C21.7497 12.4023 21.2735 11.9235 20.6065 11.8796C20.3759 11.8646 20.244 11.7467 20.2492 11.5605C20.2543 11.3806 20.3805 11.273 20.6034 11.2581C21.2725 11.2136 21.7497 10.7358 21.7947 10.0647C21.8097 9.84386 21.9198 9.71615 22.0993 9.71201C22.2849 9.70787 22.4017 9.83973 22.4167 10.0714C22.4602 10.7353 22.9416 11.2125 23.6143 11.2581C23.833 11.273 23.9612 11.3868 23.9623 11.5667V11.5673Z" fill="#F8F8F8"/>
<path d="M19.47 13.5876C19.4663 13.7665 19.3381 13.8776 19.1178 13.8921C18.5056 13.933 18.0501 14.3337 17.941 14.9299C17.9296 14.993 17.9291 15.0576 17.9229 15.1217C17.9058 15.3104 17.7884 15.433 17.622 15.4382C17.4482 15.4433 17.3148 15.3166 17.3055 15.1191C17.2926 14.8404 17.2124 14.5881 17.0392 14.3683C16.8065 14.0736 16.4994 13.919 16.1261 13.8932C15.8877 13.8766 15.7595 13.7701 15.7569 13.5855C15.7543 13.3993 15.8841 13.2866 16.1188 13.2711C16.774 13.2282 17.2595 12.7437 17.3024 12.0901C17.3179 11.8549 17.4291 11.7251 17.6147 11.7256C17.7998 11.7261 17.9094 11.8559 17.925 12.0922C17.9674 12.7437 18.4544 13.2282 19.1106 13.2711C19.3422 13.2861 19.4741 13.4025 19.4705 13.5876H19.47Z" fill="#F8F8F8"/>
<path d="M20.5525 19.3088C20.3736 19.3057 20.2614 19.177 20.2464 18.9577C20.2051 18.3434 19.8069 17.8905 19.2097 17.7804C19.1466 17.769 19.082 17.7679 19.0179 17.7623C18.8209 17.7447 18.6947 17.618 18.7004 17.4432C18.7056 17.2757 18.8271 17.1537 19.0173 17.1449C19.296 17.1319 19.5489 17.0528 19.7687 16.8791C20.0634 16.6464 20.2185 16.3398 20.2454 15.967C20.2625 15.7281 20.3674 15.5999 20.5515 15.5962C20.7371 15.5931 20.8524 15.7245 20.8679 15.9566C20.9109 16.6195 21.3928 17.0963 22.067 17.1423C22.2702 17.1562 22.3897 17.2504 22.4119 17.4138C22.4357 17.5916 22.3049 17.7566 22.1063 17.7592C21.4166 17.7669 20.8648 18.3331 20.8633 19.0063C20.8633 19.1909 20.7206 19.3124 20.5525 19.3093V19.3088Z" fill="#F8F8F8"/>
</svg>
