<svg width="32" height="32" viewBox="0 0 32 32" fill="none" xmlns="http://www.w3.org/2000/svg">
<rect width="32" height="32" rx="16" fill="#FD8EFF"/>
<path d="M27.9995 15.625C27.9468 16.0506 27.9085 16.4791 27.8382 16.9005C27.4546 19.2019 26.4809 21.1512 25.0139 22.8003C24.7723 23.0719 24.4062 23.0612 24.1737 22.8003C23.9396 22.5371 23.9396 22.1271 24.1891 21.8394C24.8548 21.0719 25.438 20.2345 25.8541 19.2682C27.3067 15.8936 27.071 12.6467 25.2145 9.54907C24.9133 9.04593 24.5276 8.60605 24.1726 8.14469C23.8619 7.74062 23.9997 7.1575 24.4483 7.0244C24.6648 6.96054 24.859 7.02321 25.0155 7.19868C26.4819 8.84897 27.4551 10.7983 27.8388 13.0997C27.909 13.5211 27.9468 13.9496 28 14.3746V15.6256L27.9995 15.625Z" fill="#F8F8F8"/>
<path d="M15.8203 21.6255C15.8203 20.4106 15.8172 19.1951 15.8239 17.9803C15.8245 17.8243 15.7789 17.757 15.6233 17.6991C14.4535 17.2645 13.8048 16.1104 14.0523 14.931C14.2882 13.8071 15.3533 12.982 16.5456 13.0003C17.7183 13.0186 18.7616 13.8697 18.9592 14.9694C19.1714 16.1512 18.5415 17.2704 17.4083 17.6873C17.2216 17.7558 17.1815 17.8432 17.1815 18.0192C17.187 20.4348 17.1857 22.8504 17.1845 25.266C17.1845 25.8105 16.6927 26.1513 16.2203 25.9333C15.9382 25.8034 15.8184 25.5725 15.819 25.2713C15.8215 24.0564 15.8203 22.8403 15.8203 21.6255Z" fill="#F8F8F8"/>
<path d="M9.15602 7C9.56923 7.02745 9.80782 7.14558 9.93111 7.40332C10.0611 7.67479 10.0038 7.92239 9.78782 8.14852C9.36129 8.5942 8.90476 9.02199 8.52421 9.4975C5.63444 13.1113 5.88437 17.8456 9.12736 21.2136C9.3333 21.4278 9.55323 21.6312 9.76583 21.84C10.0757 22.1443 10.0757 22.5584 9.76583 22.8179C9.45926 23.0745 9.01406 23.0608 8.69483 22.7714C6.63546 20.9039 5.3392 18.688 5.05995 16.064C4.69273 12.6089 6.02499 9.68485 8.71216 7.22851C8.84678 7.1056 9.05738 7.04892 9.15602 7Z" fill="#F8F8F8"/>
<path d="M8 14.9998C8.03106 12.7811 8.89884 10.8636 10.6357 9.26006C10.9802 8.94199 11.4319 8.91384 11.7574 9.18579C12.0829 9.45774 12.085 9.86447 11.7385 10.1825C10.6047 11.2212 9.87332 12.4438 9.62683 13.8742C9.24325 16.102 9.91181 18.0553 11.6366 19.7164C11.8419 19.9141 12.0343 20.1094 11.9897 20.4005C11.9479 20.6754 11.7797 20.8701 11.4799 20.9605C11.1686 21.054 10.8984 20.9773 10.6736 20.7743C9.67072 19.8715 8.93463 18.8215 8.48082 17.6199C8.16005 16.7711 7.99527 15.8989 8.00135 15.0004L8 14.9998Z" fill="#F8F8F8"/>
<path d="M24.9995 15.4122C24.9767 17.2205 24.3258 19.1385 23.0221 20.7414C22.7636 21.0595 22.4234 21.0852 22.1801 20.8127C21.9368 20.5395 21.9373 20.1334 22.1979 19.8165C23.0748 18.7491 23.6288 17.4847 23.7987 16.0136C24.0496 13.838 23.5493 11.9213 22.2856 10.298C22.1325 10.1015 21.9804 9.91045 22.0058 9.61994C22.0301 9.3444 22.1523 9.14254 22.3743 9.0461C22.6125 8.94248 22.8224 9.01795 22.9978 9.2282C23.5756 9.92063 24.0399 10.7071 24.3791 11.593C24.7988 12.6898 25.0005 13.8105 25 15.4122H24.9995Z" fill="#F8F8F8"/>
<path d="M13.1353 11C13.5681 11.0181 13.8001 11.1443 13.9267 11.4015C14.0626 11.6768 14.0069 11.937 13.7809 12.152C13.4004 12.5142 13.0843 12.9145 12.8622 13.3733C12.1397 14.8646 12.4645 16.5744 13.7034 17.7723C13.9141 17.9757 14.0507 18.1943 13.9725 18.4811C13.9035 18.7352 13.7279 18.9085 13.4495 18.9743C13.1645 19.0419 12.9119 18.9755 12.7018 18.7811C11.8375 17.9799 11.2774 17.0272 11.0858 15.92C10.7769 14.1353 11.3006 12.5685 12.6779 11.2578C12.8211 11.1214 13.0405 11.0519 13.1353 11Z" fill="#F8F8F8"/>
<path d="M22 15.0201C21.9823 16.4468 21.6232 17.6825 20.9051 18.7202C20.674 19.0542 20.3711 19.0916 20.1577 18.8192C19.9403 18.542 19.9488 18.1349 20.1781 17.7985C21.2863 16.1732 21.2863 13.8236 20.1781 12.2025C19.9483 11.8667 19.9403 11.4602 20.1573 11.1818C20.3707 10.9081 20.6726 10.9456 20.9042 11.2796C21.6316 12.3293 21.9898 13.5808 21.9996 15.0207L22 15.0201Z" fill="#F8F8F8"/>
</svg>
