<svg width="75" height="75" viewBox="0 0 75 75" fill="none" xmlns="http://www.w3.org/2000/svg">
<path id="Vector" d="M39.8519 75H35.1632C35.0027 74.9589 34.8423 74.8904 34.6799 74.8787C31.5019 74.6537 28.3885 74.0687 25.4003 72.9613C11.7765 67.9175 3.5126 58.2544 0.592935 44.0346C0.311144 42.6573 0.193731 41.2447 0 39.8497C0 38.2865 0 36.7252 0 35.162C0.0430514 34.9487 0.0978441 34.7394 0.129154 34.5241C0.379635 32.8377 0.524444 31.1277 0.892338 29.4686C5.44796 8.83151 25.9776 -3.98154 46.5366 1.12099C66.1035 5.97895 78.1461 25.0899 74.2793 44.8759C71.3381 59.9253 59.1115 71.8501 43.9672 74.4228C42.6033 74.6557 41.2237 74.8083 39.8519 74.998V75ZM31.7054 46.0498C31.4882 45.8659 31.3023 45.7153 31.1222 45.5568C28.2084 42.9918 25.3064 40.4171 22.3828 37.8639C20.4983 36.2185 17.8115 36.3476 16.1952 38.1241C14.5475 39.9358 14.6707 42.6612 16.5533 44.3496C20.6979 48.065 24.8622 51.7569 29.0421 55.4312C31.0146 57.1646 33.6564 56.9886 35.3785 55.036C43.2334 46.1457 51.0824 37.2495 58.9237 28.3495C59.9138 27.2245 60.1898 25.8823 59.8258 24.4482C59.407 22.793 58.319 21.7111 56.6772 21.3022C54.9121 20.862 53.4072 21.4137 52.2037 22.7813C47.0571 28.6253 41.9105 34.4694 36.7639 40.3114C35.0888 42.2151 33.4098 44.1149 31.7034 46.0518L31.7054 46.0498Z" fill="#09C31A"/>
</svg>
