<svg width="23" height="20" viewBox="0 0 23 20" fill="none" xmlns="http://www.w3.org/2000/svg">
<g id="color">
<rect x="0.922363" width="21.3647" height="20" rx="10" fill="#C070FE"/>
<path id="Vector" d="M11.2218 8.33535C11.0042 8.09935 10.8722 7.84331 10.8419 7.53829C10.7474 6.58424 11.6462 5.8662 12.5468 6.18446C12.6516 6.22165 12.7037 6.19805 12.7732 6.12796C13.2679 5.62733 13.7655 5.12957 14.263 4.63181C14.8958 3.99816 15.8031 3.8258 16.612 4.18446C17.4527 4.55743 17.9652 5.36057 17.9195 6.25419C17.8928 6.7827 17.6859 7.2372 17.3114 7.61267C16.805 8.12044 16.2996 8.62929 15.7906 9.13456C15.7257 9.19893 15.7107 9.24899 15.7421 9.34018C16.0392 10.1998 15.3915 11.0995 14.5027 11.0652C14.2184 11.0541 13.9681 10.9447 13.7466 10.7673C13.7188 10.7451 13.692 10.7215 13.6645 10.6994C13.6617 10.6972 13.656 10.6983 13.6417 10.6969C13.6118 10.7255 13.5761 10.758 13.5422 10.792C12.3845 11.9524 11.2253 13.1113 10.0704 14.2745C9.78333 14.5638 9.46269 14.7641 9.04005 14.7601C9.0001 14.7598 8.95302 14.7977 8.92092 14.8295C8.66733 15.0798 8.41553 15.3319 8.16479 15.5851C7.59627 16.1601 6.89757 16.0836 6.31763 15.6834C6.0084 15.4707 5.91032 15.0991 5.92352 14.7187C5.936 14.3625 6.08651 14.0671 6.33689 13.8186C6.58941 13.5672 6.84193 13.3155 7.09016 13.0602C7.12654 13.0226 7.15757 12.9636 7.16043 12.9132C7.18147 12.5449 7.31914 12.2341 7.58058 11.9727C8.67696 10.8771 9.77049 9.77858 10.8658 8.6815C10.9817 8.56528 11.1012 8.45264 11.2221 8.33571L11.2218 8.33535ZM11.8206 8.9243C10.9 9.84724 9.97129 10.7784 9.04468 11.7071C9.05075 11.7074 9.07143 11.7106 9.09248 11.7106C9.85788 11.7106 10.6229 11.7124 11.3883 11.7078C11.4415 11.7078 11.5067 11.6738 11.5456 11.6348C12.0235 11.1614 12.4979 10.6844 12.973 10.208C12.9976 10.1834 13.0193 10.1562 13.0354 10.1387C12.6217 9.7253 12.2136 9.31729 11.8206 8.9243Z" fill="#F8F8F8"/>
</g>
</svg>
