<svg width="64" height="63" viewBox="0 0 64 63" fill="none" xmlns="http://www.w3.org/2000/svg">
<path id="Vector" d="M63.5 44.0506C63.1485 45.2832 62.2837 46.1429 61.4003 47.0042C60.0792 48.2938 58.7889 49.6142 57.4785 50.9145C55.7164 52.6617 53.5782 52.6725 51.8285 50.9299C48.5002 47.6158 45.1796 44.294 41.862 40.9691C40.1123 39.2142 40.1092 37.0773 41.8466 35.3224C42.3353 34.8293 42.8425 34.3563 43.3497 33.8664C42.807 33.3364 42.3261 32.868 41.7927 32.3488C41.6632 32.472 41.5028 32.6184 41.3502 32.7709C39.2891 34.8293 37.2095 36.8677 35.1776 38.9554C34.0214 40.1433 32.7111 40.6733 31.0446 40.2203C30.9506 40.906 30.8904 41.5716 30.7625 42.2248C30.4819 43.67 29.799 44.9149 28.7939 45.9842C28.1356 46.6837 27.448 46.7145 26.7636 46.0335C23.6526 42.9382 20.5478 39.8352 17.4507 36.7244C16.7663 36.0373 16.8002 35.3593 17.5031 34.6968C18.9692 33.3179 20.7236 32.6276 22.723 32.5259C22.8833 32.5182 23.0437 32.5075 23.258 32.4936C23.2133 32.2039 23.1608 31.9528 23.1362 31.697C23.019 30.446 23.4722 29.4229 24.3556 28.5478C26.483 26.4401 28.5935 24.317 30.7178 22.2046C30.875 22.049 31.0785 21.9396 31.2897 21.7871C30.6546 21.2031 30.1458 20.7348 29.5292 20.1678C29.0991 20.6346 28.6366 21.18 28.1279 21.6823C26.4229 23.3648 24.2662 23.3663 22.5658 21.6823C20.7282 19.8643 18.9091 18.0292 17.0838 16.2004C16.8773 15.9924 16.7231 15.8291 16.3639 16.0047C11.0824 18.5747 7.23915 22.5251 4.86353 27.8961C4.8327 27.9669 4.81574 28.044 4.77412 28.1749C5.01307 28.1873 5.20885 28.2058 5.40464 28.2058C7.86658 28.2073 10.3285 28.1811 12.7905 28.2165C14.2519 28.2381 15.3002 27.6449 16.0232 26.3892C16.6476 25.3061 17.3104 24.2461 17.9625 23.1799C18.2524 22.7038 18.6686 22.4373 19.2436 22.5143C19.7354 22.579 20.1254 22.8579 20.2071 23.3355C20.2672 23.6883 20.221 24.1321 20.0468 24.4356C19.3084 25.736 18.5499 27.0286 17.7159 28.2674C16.6892 29.7927 15.2077 30.6201 13.3624 30.6463C10.4703 30.6879 7.57676 30.6879 4.68471 30.6493C4.0249 30.6401 3.69962 30.8096 3.65029 31.4736C3.63333 31.7124 3.54238 31.9451 3.46838 32.2502C4.2361 32.4135 4.96528 32.5999 5.70525 32.7232C7.76483 33.0667 9.20315 34.1807 9.92462 36.139C10.3193 37.2098 10.9513 38.0556 11.8239 38.7859C12.9246 39.7057 13.9575 40.7057 15.0135 41.6794C16.6753 43.214 16.609 45.1383 14.847 46.5743C13.4009 47.753 11.9518 48.9301 10.4935 50.0949C9.76738 50.6757 9.22165 51.3798 8.99041 52.2827C8.93799 52.4876 8.99966 52.8142 9.13994 52.9652C12.5762 56.6645 16.757 59.0557 21.7179 60.0665C24.835 60.7012 27.9475 60.6874 31.0616 60.0464C31.2573 60.0064 31.4516 59.9524 31.615 59.9124C31.2527 59.3223 30.8164 58.7861 30.5713 58.1729C30.0117 56.7693 30.2753 55.4366 31.1556 54.224C31.6612 53.5276 32.1684 52.8297 32.6987 52.1533C33.1489 51.5801 33.3647 50.9561 33.3493 50.2212C33.3231 48.9301 33.337 47.6374 33.3431 46.3463C33.3478 45.4234 33.7979 44.881 34.5502 44.8687C35.3287 44.8564 35.7974 45.408 35.802 46.3632C35.8082 47.716 35.7943 49.0703 35.8066 50.423C35.8174 51.5308 35.4906 52.5184 34.8292 53.4028C34.2897 54.1254 33.747 54.8465 33.2167 55.5768C32.5569 56.4827 32.597 57.1714 33.3401 58.0065C34.3883 59.1852 34.3853 59.179 35.8529 58.5165C38.2084 57.4518 40.3389 56.0513 42.2336 54.2918C42.3384 54.1947 42.4432 54.0946 42.5588 54.0099C43.1508 53.5723 43.8353 53.6123 44.2746 54.1038C44.7248 54.6077 44.6847 55.3503 44.139 55.8649C43.5871 56.3857 43.0229 56.8972 42.4263 57.364C38.6848 60.2976 34.4716 62.131 29.745 62.7489C29.0575 62.8382 28.3699 62.9168 27.6808 63H24.6038C23.5755 62.8459 22.5411 62.7211 21.519 62.5301C16.8526 61.6611 12.7612 59.6089 9.21548 56.4689C5.28747 52.9899 2.52492 48.7313 1.3348 43.6253C-1.06702 33.3179 1.71866 24.5419 9.63017 17.49C11.0515 16.2235 12.7982 15.3206 14.3953 14.2498C14.5294 14.1605 14.6697 14.0773 14.85 13.9633C14.07 13.1852 13.3131 12.4379 12.5638 11.6814C10.8218 9.92348 10.8157 7.78957 12.5577 6.03314C14.1178 4.46006 15.6856 2.89468 17.255 1.33238C19.0309 -0.433293 21.186 -0.44716 22.9496 1.30927C26.278 4.62337 29.6001 7.94364 32.9146 11.2716C34.6489 13.0126 34.635 15.1681 32.8961 16.9199C32.4197 17.3991 31.9171 17.8505 31.447 18.2942C32.0096 18.8335 32.5076 19.3096 33.0564 19.835C33.115 19.7795 33.2768 19.6347 33.4295 19.4806C35.5199 17.3929 37.6057 15.3037 39.6976 13.2176C41.5429 11.3779 43.6118 11.381 45.4617 13.2299C45.955 13.7229 46.4314 14.2314 46.9663 14.786C47.3409 14.4209 47.6893 14.1158 47.9899 13.7661C48.0732 13.669 48.0762 13.4148 48.0115 13.2884C46.8275 11.0159 47.3116 8.3658 49.328 6.52309C49.6302 6.2473 49.9 5.93299 50.2083 5.66337C50.8157 5.13336 51.4431 5.11949 52.0197 5.68802C53.9775 7.61701 55.9184 9.56295 57.8531 11.515C58.2863 11.9511 58.4389 12.5412 58.0504 13.025C57.0977 14.2098 56.0556 15.3268 54.5525 15.8322C53.0633 16.3329 51.6065 16.2297 50.2083 15.4855C50.1204 15.4393 50.0248 15.4054 49.9863 15.3884C49.567 15.7752 49.18 16.1326 48.7083 16.5686C49.2679 17.094 49.8028 17.5701 50.3085 18.0755C52.1291 19.8935 52.1322 21.9828 50.3224 23.7962C48.235 25.887 46.1477 27.9746 44.0511 30.0562C43.8923 30.2133 43.6734 30.3088 43.4946 30.4244C44.0974 31.0407 44.5691 31.5214 45.1904 32.1562C45.6405 31.6431 46.0567 31.1162 46.5285 30.6447C48.3522 28.8128 50.4704 28.8205 52.3064 30.6524C55.3418 33.68 58.3634 36.7214 61.408 39.7381C62.2837 40.6071 63.147 41.4668 63.5 42.6963V44.049V44.0506ZM32.2594 38.0726C32.6617 37.7798 33.0533 37.5657 33.357 37.2637C37.4716 33.17 41.5753 29.0639 45.6806 24.961C46.6965 23.9456 47.7201 22.9395 48.7237 21.9134C49.3758 21.2463 49.3774 20.6377 48.7268 19.9813C47.0095 18.2465 45.2829 16.5224 43.5486 14.8045C42.8764 14.1389 42.2644 14.1574 41.5707 14.8292C41.1884 15.2005 40.8153 15.5826 40.4376 15.9585C35.6802 20.7147 30.9213 25.4694 26.1654 30.2272C25.3653 31.0268 25.3638 31.583 26.1577 32.3796C27.8365 34.0651 29.5138 35.7522 31.2126 37.4193C31.4732 37.6751 31.8432 37.8183 32.2594 38.0741V38.0726ZM7.08653 50.4277C7.76175 48.9871 8.96728 48.1782 10.0757 47.2723C11.1394 46.4033 12.2093 45.542 13.2745 44.6761C13.8865 44.1785 13.8958 43.9982 13.3269 43.4759C12.5114 42.7271 11.7206 41.949 10.8712 41.2418C9.37119 39.9954 8.06236 38.6396 7.4673 36.7029C7.23452 35.9448 6.604 35.4672 5.81008 35.2839C4.91749 35.0774 4.02028 34.894 3.06294 34.6861C2.54188 40.4145 3.84607 45.6052 7.08653 50.4277ZM27.6716 43.3403C29.0343 41.513 28.7044 38.4809 26.9069 36.6227C25.1418 34.7985 22.0447 34.4442 20.1439 35.8169C22.6506 38.3222 25.1634 40.8336 27.67 43.3388L27.6716 43.3403ZM17.6064 4.43541C19.3824 6.21032 21.0858 7.91283 22.7246 9.55062C23.5169 8.76023 24.3525 7.92669 25.168 7.11165C23.7759 5.69418 22.3607 4.21508 20.8993 2.7822C20.4014 2.29379 19.7786 2.35234 19.2359 2.84692C18.6609 3.36922 18.1213 3.93005 17.6064 4.43386V4.43541ZM15.6856 6.31047C15.2462 6.77115 14.7853 7.26264 14.3136 7.74643C13.5304 8.55069 13.5243 9.16544 14.3167 9.96354C15.5731 11.2254 16.8356 12.4826 18.0982 13.7383C18.2015 13.8415 18.3279 13.9232 18.3603 13.9479C19.2344 13.0743 20.0545 12.2531 20.8392 11.4688C19.1727 9.80176 17.4692 8.09617 15.6856 6.31201V6.31047ZM29.7049 16.584C29.7142 16.5794 29.7574 16.5717 29.7836 16.5455C30.2353 16.0987 30.6885 15.6534 31.1356 15.202C31.931 14.3962 31.9387 13.783 31.151 12.9895C29.9963 11.8263 28.8262 10.6769 27.6793 9.5044C27.4835 9.3041 27.374 9.01907 27.2723 8.85267C26.2456 9.87109 25.4054 10.7031 24.6331 11.4688C26.2995 13.1498 27.9999 14.8646 29.7065 16.5856L29.7049 16.584ZM54.5047 36.3685C53.1158 34.9695 51.716 33.5336 50.2823 32.1315C49.7489 31.6092 49.1153 31.6138 48.568 32.1022C47.976 32.6323 47.4272 33.21 46.88 33.7477C48.6343 35.4857 50.3486 37.1851 52.0197 38.8414C52.7905 38.0757 53.6276 37.2406 54.5047 36.3685ZM59.0371 45.9565C59.5134 45.4542 59.9728 44.9596 60.443 44.4758C61.2261 43.6685 61.2338 43.0614 60.4368 42.2603C59.1928 41.0107 57.9425 39.7658 56.6923 38.5225C56.5813 38.4115 56.4518 38.3206 56.4163 38.2914C55.5438 39.168 54.7113 40.0046 53.9051 40.8151C55.5499 42.4636 57.2426 44.16 59.0371 45.9565ZM20.1562 15.7675C21.6208 17.2388 23.036 18.6825 24.4789 20.0969C24.9476 20.556 25.5966 20.6223 26.039 20.2171C26.6772 19.6331 27.2322 18.9583 27.7487 18.4021C26.0883 16.7289 24.3926 15.0202 22.6197 13.233C22.4995 13.3824 22.3746 13.5704 22.2174 13.7275C21.5406 14.407 20.8546 15.0788 20.1578 15.7659L20.1562 15.7675ZM44.99 35.5982C44.4966 36.1081 43.9787 36.6304 43.4776 37.1682C42.8703 37.8199 42.8687 38.4685 43.4915 39.1172C44.1143 39.7658 44.7633 40.3914 45.3985 41.0292C46.1569 41.7903 46.9123 42.5545 47.603 43.251C48.494 42.365 49.3296 41.5346 50.1327 40.7365C48.4647 39.071 46.7613 37.3685 44.99 35.5997V35.5982ZM49.5238 45.1168C50.919 46.5204 52.3311 47.9702 53.7786 49.383C54.3136 49.9054 54.9811 49.8715 55.5407 49.3584C56.1126 48.8345 56.6522 48.2737 57.144 47.7915C55.3896 46.0412 53.6723 44.3264 51.9873 42.6454C51.1995 43.4343 50.3655 44.2725 49.5223 45.1168H49.5238ZM55.2185 12.4611C53.8187 11.0652 52.4467 9.69545 51.07 8.32266C49.6086 9.47204 49.3989 11.4226 50.6322 12.7523C51.8686 14.085 53.8511 13.9617 55.2185 12.4611Z" fill="#000000"/>
</svg>
