<svg width="15" height="37" viewBox="0 0 15 37" fill="none" xmlns="http://www.w3.org/2000/svg">
<path id="Vector" d="M12.8828 17.9137C12.8933 18.0344 12.9086 18.1357 12.9086 18.2371C12.9105 19.6945 12.9153 21.151 12.9019 22.6074C12.9 22.7686 12.8312 22.9655 12.7252 23.0832C10.8859 25.1092 10.2824 27.4632 10.8831 30.1348C10.9633 30.491 10.9327 30.7979 10.7857 31.1357C9.97869 32.9831 9.19083 34.8391 8.40679 36.6971C8.31511 36.9143 8.21197 37.0098 7.96368 36.9992C7.41647 36.976 6.86735 36.9838 6.32015 36.9963C6.11292 37.0011 6.00691 36.9471 5.93625 36.7328C3.97376 30.8298 2.00745 24.9296 0.0296753 19.0333C-0.0600931 18.765 0.0678746 18.6714 0.225447 18.5343C2.29967 16.7237 3.8859 14.5829 4.52478 11.8379C4.94975 10.0128 5.31455 8.17314 5.70514 6.3393C5.86558 5.58743 6.01073 4.83169 6.18741 4.08271C6.21988 3.94662 6.34593 3.76131 6.4634 3.72849C7.30378 3.49395 7.74116 2.93608 7.95986 2.0983C8.14703 1.3831 8.45167 0.69879 8.70379 0C10.8009 0 12.8971 0 14.9943 0C14.9971 1.8184 15.0038 3.63583 14.9971 5.45423C14.9971 5.58164 14.9255 5.73124 14.8415 5.83162C14.2704 6.51014 13.6783 7.17032 13.1149 7.8556C12.9993 7.99555 12.9229 8.21175 12.9181 8.39513C12.8971 9.22519 12.899 10.0572 12.9153 10.8872" fill="#F8F8F8"/>
</svg>
