<svg width="29" height="26" viewBox="0 0 29 26" fill="none" xmlns="http://www.w3.org/2000/svg">
<path id="Vector" d="M9.73635 25.9898C7.92612 25.9898 6.11241 25.9898 4.30219 25.9898C3.48062 25.9898 2.91318 25.5731 2.77394 24.8945C2.70779 24.5694 2.79482 24.2726 2.97933 23.9949C3.16731 23.7108 3.36226 23.4299 3.55721 23.1489C3.99584 22.505 3.95755 21.9716 3.42492 21.4003C1.94193 19.8094 0.942821 17.9976 0.396271 15.9743C-1.41396 9.24782 3.15339 2.25306 10.5161 0.463342C18.4603 -1.46527 26.4218 2.79913 28.2912 10.0527C29.3704 14.2445 28.2285 18.0134 25.2173 21.2993C23.0137 23.7076 20.1591 25.1786 16.7649 25.7499C15.8111 25.9109 14.8259 25.9519 13.8511 25.9803C12.4795 26.0182 11.1045 25.9898 9.72939 25.9898H9.73635ZM15.644 17.6882C15.644 17.5557 15.644 17.4452 15.644 17.3379C15.644 15.4566 15.644 13.5722 15.644 11.6909C15.644 10.9934 15.1357 10.4757 14.4151 10.4536C13.8372 10.4347 13.2559 10.4347 12.6745 10.4536C12.0026 10.4757 11.477 10.9681 11.4421 11.5836C11.4073 12.1612 11.8634 12.6789 12.5109 12.7862C12.678 12.8146 12.8486 12.8209 13.0505 12.8399C13.0505 12.9567 13.0505 13.0672 13.0505 13.1745C13.0505 15.0557 13.0505 16.9402 13.0505 18.8214C13.0505 19.5253 13.5483 20.0461 14.2619 20.0714C14.8502 20.0935 15.4421 20.0903 16.0339 20.0714C16.6918 20.0493 17.2035 19.5632 17.2488 18.9571C17.2906 18.3795 16.838 17.8524 16.1975 17.7419C16.0304 17.7135 15.8563 17.7072 15.644 17.6882ZM14.3455 8.34822C15.4525 8.34822 16.3472 7.54016 16.3506 6.54272C16.3541 5.54527 15.4595 4.72774 14.3559 4.72459C13.235 4.72143 12.3333 5.5358 12.3333 6.54272C12.3333 7.53701 13.2384 8.34507 14.342 8.34507L14.3455 8.34822Z" fill="#E8E8E8"/>
</svg>
