<svg width="296" height="298" viewBox="0 0 296 298" fill="none" xmlns="http://www.w3.org/2000/svg">
<g clip-path="url(#clip0_426_5304)">
<path d="M146.236 174.662C149.703 179.011 153.356 183.547 156.946 188.021C159.361 191.066 159.361 192.867 156.699 195.601C151.746 200.634 146.731 205.667 141.716 210.638C139.425 212.937 137.382 213.061 134.844 211.073C130.82 207.966 126.857 204.735 123.019 201.504C121.657 200.324 120.604 200.075 118.809 201.007C115.156 202.809 111.379 204.362 107.603 205.792C106.055 206.351 105.498 207.096 105.374 208.774C105.002 213.621 104.507 218.529 103.888 223.376C103.393 227.477 101.845 228.719 97.8207 228.719C91.0724 228.719 84.2621 228.719 77.5137 228.719C73.5513 228.719 72.375 227.663 71.8178 223.811C71.0749 218.654 70.5177 213.496 69.7128 208.401C69.589 207.531 68.5984 206.413 67.7316 206.04C63.7693 204.238 59.745 202.561 55.6588 201.007C54.6683 200.634 53.1205 200.759 52.3156 201.318C48.3533 204.3 44.5147 207.531 40.6143 210.638C37.2091 213.372 35.4756 213.248 32.4419 210.079C27.7367 205.232 23.0314 200.324 18.3261 195.477C15.7258 192.805 15.6639 190.879 18.0165 187.897C21.1121 183.982 24.2077 180.068 27.4271 176.277C28.6034 174.91 28.4796 173.854 27.7367 172.301C26.0031 168.635 24.3934 164.845 22.9695 161.054C22.4742 159.687 21.917 159.004 20.3692 158.88C15.4162 158.445 10.4633 157.885 5.51034 157.326C1.67182 156.891 0.185935 155.338 0.124023 151.548C0.124023 144.651 0.124023 137.754 0.124023 130.857C0.124023 127.066 1.67182 125.451 5.44843 124.954C10.4014 124.332 15.3543 123.773 20.2453 123.028C21.2359 122.841 22.4122 121.847 22.8456 120.915C24.6411 117.063 26.0031 112.962 27.7986 109.109C28.5415 107.494 28.4177 106.5 27.3033 105.133C23.96 101.28 20.7406 97.3658 17.5212 93.4513C15.0448 90.4688 15.1686 88.729 17.8927 85.933C22.7837 80.9621 27.7367 76.0535 32.6896 71.0827C35.0422 68.7837 36.8377 68.6594 39.4999 70.7099C43.2765 73.6302 47.0531 76.6127 50.644 79.7816C52.5633 81.4592 54.0491 81.7078 56.3399 80.4651C59.6831 78.7253 63.2121 77.3583 66.803 76.1777C68.5984 75.5564 69.3413 74.6244 69.5271 72.8846C70.0843 68.038 70.7034 63.1915 71.3844 58.345C71.9416 54.4926 73.4894 53.0635 77.266 53.0635C84.0144 53.0635 90.8247 53.0635 97.5731 53.0635C101.412 53.0635 103.145 54.679 103.579 58.5935C104.074 63.2536 104.569 67.9138 104.879 72.5739C105.002 74.5001 105.684 75.4943 107.603 76.1777C111.317 77.4826 115.032 79.036 118.561 80.8379C120.233 81.7078 121.161 81.4592 122.462 80.3408C126.176 77.1719 130.015 74.1273 133.791 71.0827C137.011 68.473 138.682 68.5351 141.592 71.3312C146.607 76.1777 151.622 81.0243 156.575 85.933C159.175 88.4805 159.299 90.2824 156.946 93.2649C153.789 97.2415 150.631 101.28 147.35 105.133C146.174 106.5 146.236 107.494 146.979 109.047C148.774 112.9 150.198 117.001 151.993 120.853C152.427 121.785 153.603 122.779 154.594 122.903C159.485 123.711 164.438 124.208 169.391 124.892C173.105 125.389 174.653 127.129 174.653 130.857C174.653 137.754 174.653 144.651 174.653 151.548C174.653 155.151 173.043 156.829 169.515 157.202C164.5 157.761 159.423 158.258 154.408 158.942C153.479 159.066 152.365 159.936 151.993 160.806C150.012 165.279 148.279 169.815 146.298 174.724L146.236 174.662ZM59.8069 139.742C59.745 155.027 72.1274 167.703 87.2957 167.827C102.526 167.951 115.342 155.214 115.342 139.928C115.342 124.643 102.897 112.154 87.6053 112.092C72.2512 112.092 59.8688 124.395 59.8069 139.742Z" fill="#8E8E8E"/>
<path d="M271.668 193.178C273.154 196.968 274.393 200.51 276.002 203.99C276.498 204.984 277.798 206.04 278.912 206.226C282.813 206.91 286.775 207.221 290.737 207.718C294.7 208.215 295.938 209.582 296 213.558C296 219.337 296 225.115 296 230.956C296 234.746 294.452 236.424 290.799 236.921C287.023 237.418 283.308 237.915 279.531 238.226C277.488 238.412 276.25 238.972 275.693 241.146C275.197 243.073 274.702 245.123 273.588 246.738C271.235 250.218 272.164 252.766 274.764 255.562C276.745 257.674 278.355 260.098 280.088 262.397C282.441 265.565 282.379 267.243 279.655 269.977C275.507 274.202 271.359 278.365 267.211 282.466C264.858 284.765 263.125 284.889 260.401 282.839C257.119 280.416 253.9 277.93 250.742 275.321C249.504 274.326 248.575 274.078 247.028 274.824C244.242 276.191 241.394 277.247 238.484 278.303C237.06 278.8 236.255 279.422 236.069 281.161C235.76 285.138 235.141 289.115 234.521 293.029C233.964 296.695 232.416 298.124 228.826 298.124C223.13 298.124 217.496 298.124 211.8 298.124C208.333 298.124 206.723 296.819 206.166 293.278C205.547 289.239 205.237 285.138 204.494 281.099C204.308 280.105 203.318 278.924 202.389 278.49C200.346 277.433 197.932 277.185 196.074 275.942C192.793 273.767 190.378 274.575 187.778 277.06C185.611 279.111 183.135 280.789 180.72 282.59C177.501 285.014 175.953 284.889 173.167 282.156C169.019 277.992 164.871 273.829 160.723 269.666C158.494 267.43 158.37 265.441 160.289 262.769C162.704 259.476 165.18 256.183 167.781 253.076C168.895 251.709 168.895 250.653 168.152 249.1C166.914 246.49 165.799 243.818 164.933 241.084C164.375 239.344 163.509 238.475 161.651 238.35C157.875 238.04 154.16 237.48 150.383 237.045C146.235 236.548 144.688 234.995 144.688 230.894C144.688 225.115 144.688 219.337 144.688 213.496C144.688 209.644 145.988 208.277 149.764 207.842C153.727 207.345 157.689 206.848 161.589 206.475C163.261 206.351 164.19 205.791 164.685 203.99C165.49 201.256 166.604 198.522 167.966 195.974C169.019 194.048 168.709 192.805 167.471 191.19C165.056 188.269 162.828 185.225 160.537 182.18C158.37 179.26 158.432 177.396 160.97 174.848C165.118 170.623 169.266 166.522 173.415 162.359C175.829 159.998 177.501 159.811 180.225 161.8C183.506 164.223 186.787 166.708 189.883 169.318C191.369 170.561 192.545 170.561 194.155 169.691C195.765 168.759 197.56 167.889 199.356 167.516C203.566 166.708 205.175 164.285 205.175 160.122C205.175 157.078 205.732 153.971 206.228 150.926C206.785 147.447 208.395 146.142 211.924 146.08C217.62 146.08 223.253 146.017 228.949 146.08C232.416 146.08 234.026 147.571 234.521 151.05C235.141 155.213 235.698 159.377 236.069 163.54C236.193 165.279 236.998 165.839 238.422 166.398C241.517 167.516 244.489 168.883 247.585 170.002C248.39 170.25 249.69 170.002 250.433 169.567C253.776 167.206 256.933 164.596 260.153 162.11C263.125 159.874 264.796 159.936 267.458 162.545C271.483 166.522 275.507 170.561 279.469 174.6C282.379 177.582 282.503 179.198 279.903 182.615C277.117 186.281 274.331 189.885 271.73 193.302L271.668 193.178ZM220.653 244.067C233.531 244.067 243.684 233.752 243.684 220.828C243.684 207.904 233.531 197.652 220.591 197.59C207.59 197.59 197.312 207.904 197.374 220.952C197.374 233.69 207.899 244.129 220.653 244.067Z" fill="#3A3A3A"/>
<path d="M220.592 134.336C217.991 134.336 215.391 134.336 212.853 134.336C209.695 134.274 207.9 132.658 207.528 129.489C207.095 126.01 206.847 122.53 206.29 119.113C206.166 118.181 205.238 117.187 204.371 116.69C203.071 115.944 201.399 115.944 200.223 115.136C196.57 112.589 193.784 113.645 190.936 116.503C189.326 118.119 187.345 119.361 185.55 120.728C183.383 122.344 181.278 122.282 179.358 120.356C175.272 116.317 171.124 112.216 167.1 108.053C165.119 106.002 165.614 103.89 167.162 101.839C169.205 99.2296 171.186 96.62 173.353 94.1967C174.467 92.954 174.591 91.8977 173.725 90.5307C173.043 89.4123 172.362 88.2317 172.239 86.989C171.681 82.1425 168.586 81.0862 164.438 81.0862C162.333 81.0862 160.29 80.7134 158.185 80.4648C155.151 80.092 153.417 78.3523 153.356 75.3698C153.232 69.9019 153.232 64.3719 153.356 58.904C153.356 56.17 154.965 54.3681 157.689 53.9953C161.156 53.4982 164.623 53.1254 168.091 52.8769C169.824 52.7526 170.877 52.2555 171.186 50.3915C171.434 49.1488 171.743 47.7196 172.424 46.7255C175.334 42.8731 173.91 39.8906 171 36.9081C169.453 35.3548 168.276 33.4907 166.976 31.6888C165.366 29.5141 165.49 27.4015 167.348 25.4753C171.372 21.3744 175.458 17.2113 179.606 13.1725C181.587 11.2463 183.816 11.6813 185.797 13.2968C188.583 15.5337 191.307 17.8948 194.155 20.0074C194.898 20.5666 196.26 20.5666 197.251 20.3802C198.551 20.0695 199.789 18.9511 201.09 18.8268C205.919 18.2676 206.909 15.0987 206.909 10.9978C206.909 9.00947 207.281 7.02115 207.528 5.03282C207.962 1.55326 209.571 -0.000120751 212.915 -0.0622559C217.991 -0.0622559 223.068 -0.0622559 228.145 -0.0622559C231.426 -0.0622559 232.788 1.24258 233.16 4.59788C233.531 7.76677 233.965 10.9357 234.088 14.1045C234.212 16.3414 235.017 17.4598 237.184 17.9569C238.794 18.2676 240.527 18.8268 241.889 19.7588C244.366 21.3744 246.099 20.753 248.081 18.889C250.371 16.6521 252.91 14.788 255.386 12.7376C257.615 10.9357 259.782 11.0599 261.825 13.0483C265.849 17.0249 269.873 21.0637 273.836 25.1025C275.817 27.0908 275.507 29.2655 274.022 31.316C271.978 34.1121 269.688 36.7839 267.707 39.7042C267.149 40.5741 266.964 42.0653 267.273 43.0595C268.016 45.5449 269.007 47.9682 270.121 50.2672C270.554 51.1371 271.669 52.007 272.536 52.1312C275.879 52.6905 279.222 52.8769 282.627 53.3118C286.156 53.7468 287.58 55.3623 287.58 58.8418C287.58 64.0612 287.58 69.2184 287.58 74.4377C287.58 78.1037 286.342 79.4707 282.751 79.9056C279.408 80.3406 276.003 80.527 272.659 81.0862C271.669 81.2726 270.616 82.2668 270.059 83.1988C269.378 84.2551 269.44 85.8085 268.697 86.8026C265.787 90.8414 267.087 94.0103 270.245 97.1171C271.669 98.484 272.721 100.224 273.898 101.839C275.569 104.076 275.569 106.313 273.588 108.301C269.626 112.34 265.602 116.379 261.577 120.356C259.596 122.344 257.491 122.095 255.386 120.542C252.662 118.492 249.938 116.503 247.338 114.328C246.037 113.272 244.985 112.962 243.375 113.831C241.456 114.826 239.413 115.758 237.308 116.255C235.141 116.752 234.522 117.994 234.398 119.983C234.212 122.841 233.903 125.761 233.593 128.62C233.16 132.72 231.426 134.212 227.402 134.274C225.111 134.274 222.821 134.274 220.53 134.274L220.592 134.336ZM240.342 66.8573C240.465 55.4865 231.798 46.5391 220.53 46.4769C209.509 46.4148 200.594 55.3001 200.532 66.4223C200.47 77.4202 209.2 86.3677 220.096 86.492C231.302 86.6162 240.218 77.9794 240.342 66.9194V66.8573Z" fill="#BBBBBB"/>
</g>
<defs>
<clipPath id="clip0_426_5304">
<rect width="296" height="298" fill="white"/>
</clipPath>
</defs>
</svg>
