<svg width="34" height="42" viewBox="0 0 34 42" fill="none" xmlns="http://www.w3.org/2000/svg">
<g id="Group 54">
<path id="Vector" d="M15.2612 0C15.9102 0.108842 16.5633 0.198358 17.2082 0.329579C18.3607 0.564557 19.4613 0.954151 20.4928 1.48107C19.737 1.85134 18.9558 2.16464 18.2457 2.59594C15.8309 4.06277 13.711 5.91106 11.6379 7.81529C11.29 8.1347 10.9411 8.45512 10.6186 8.75215C8.80595 6.92116 7.00344 5.10034 5.15515 3.23374C5.74209 2.83601 6.39616 2.33757 7.10007 1.92458C8.93107 0.848361 10.9167 0.228874 13.0376 0.0579815C13.1301 0.0508609 13.2207 0.0203444 13.3122 0C13.9622 0 14.6122 0 15.2612 0Z" fill="#E8E8E8"/>
<path id="Vector_2" d="M18.0352 33.2559V39.1476C18.1898 39.1476 18.3322 39.1476 18.4756 39.1476C20.4928 39.1476 22.5089 39.1415 24.5261 39.1507C25.4609 39.1548 26.058 39.9858 25.7304 40.8057C25.5494 41.2584 25.1995 41.5117 24.7173 41.5727C24.5708 41.591 24.4203 41.5829 24.2707 41.5829C19.2894 41.5829 14.3081 41.5829 9.32779 41.5829C8.3594 41.5829 7.78874 41.1261 7.79383 40.3571C7.79891 39.5891 8.36448 39.1466 9.34203 39.1466C11.2646 39.1466 13.1861 39.1466 15.1086 39.1466C15.2541 39.1466 15.3996 39.1466 15.5664 39.1466V33.5977C15.3986 33.5977 15.2531 33.5936 15.1076 33.5977C9.49156 33.7889 4.65367 31.9457 0.602087 28.0498C0.031427 27.5005 -0.0214683 26.761 0.459676 26.2463C0.955062 25.7173 1.70374 25.7285 2.29576 26.3053C4.47362 28.4292 7.01972 29.9103 9.97169 30.6478C13.888 31.6253 17.6954 31.3018 21.3666 29.5817C24.7214 28.0091 27.2939 25.5861 29.0852 22.3564C30.7067 19.4319 31.3841 16.2826 31.1258 12.941C30.8084 8.82841 29.191 5.3007 26.3306 2.33856C26.0356 2.03339 25.8261 1.69873 25.8668 1.25929C25.9135 0.755764 26.1729 0.392616 26.65 0.218672C27.1576 0.0335381 27.6347 0.138312 27.9805 0.548251C28.8086 1.52885 29.6956 2.47486 30.4025 3.53887C32.7767 7.10931 33.858 11.0602 33.5569 15.3488C33.0799 22.1235 29.8736 27.2777 24.1527 30.8746C22.4143 31.9671 20.506 32.6964 18.495 33.1379C18.3505 33.1694 18.2091 33.2122 18.0382 33.2559H18.0352Z" fill="#E8E8E8"/>
<path id="Vector_3" d="M10.4916 12.2076C12.3602 14.0966 14.2044 15.9602 16.0771 17.8532C15.4647 18.4269 14.8361 19.0342 14.1871 19.6211C12.5596 21.092 10.8679 22.4836 8.9576 23.5802C7.88341 24.1966 6.7482 24.6472 5.50719 24.8079C5.04639 24.868 4.71274 24.75 4.33434 24.4539C3.57549 23.8599 3.48597 23.1611 3.70366 22.3005C3.99865 21.1368 4.4625 20.0524 5.08199 19.0281C6.58849 16.5369 8.4968 14.3652 10.4926 12.2076H10.4916Z" fill="#E8E8E8"/>
<path id="Vector_4" d="M17.8307 16.0263C15.9835 14.1597 14.1392 12.2962 12.2635 10.4001C12.943 9.76533 13.6469 9.07871 14.3834 8.42871C15.9061 7.08395 17.4808 5.8053 19.2447 4.78096C20.3188 4.15842 21.4541 3.70373 22.6879 3.52164C23.1325 3.45654 23.5099 3.50435 23.9218 3.81765C24.7305 4.43205 24.7732 5.16547 24.5606 6.0413C24.2473 7.33215 23.6909 8.51009 22.9901 9.62699C21.5446 11.931 19.7584 13.9624 17.9294 15.9602C17.903 15.9887 17.8633 16.005 17.8307 16.0263Z" fill="#E8E8E8"/>
<path id="Vector_5" d="M19.7502 17.8085C21.0105 16.2297 22.3441 14.6307 23.5963 12.9695C24.8495 11.3074 26.0285 9.58831 26.6886 7.4552C27.7486 9.38181 28.2958 11.3491 28.3925 13.4283C28.5644 17.1178 27.4749 20.4074 25.1445 23.2699C23.3349 21.4379 21.5313 19.612 19.7512 17.8095L19.7502 17.8085Z" fill="#E8E8E8"/>
<path id="Vector_6" d="M17.8959 19.5835C19.7157 21.4247 21.5222 23.2516 23.3268 25.0765C19.0769 28.7558 12.7213 29.478 7.72266 26.8363C7.81319 26.7875 7.88134 26.7356 7.95865 26.7102C9.51703 26.1822 10.8964 25.3206 12.172 24.3177C13.9786 22.8976 15.7231 21.3982 17.4941 19.9314C17.6283 19.8205 17.7575 19.7025 17.8948 19.5835H17.8959Z" fill="#E8E8E8"/>
<path id="Vector_7" d="M3.35774 5.09924C5.17145 6.93634 6.96379 8.75208 8.77037 10.5821C6.08084 13.6958 3.17566 16.7057 1.59796 20.6505C-0.930851 16.2561 -0.540239 9.51804 3.35774 5.09924Z" fill="#E8E8E8"/>
</g>
</svg>
