<svg width="35" height="30" viewBox="0 0 35 30" fill="none" xmlns="http://www.w3.org/2000/svg">
    <g id="Group 95">
<path id="Vector" d="M19.6967 12.9981C19.5977 12.9981 19.4987 12.9981 19.4004 12.9981C14.7608 12.9932 6.4423 13.003 1.80198 12.9974C0.969556 12.9967 0.10853 12.7327 0.10853 11.0111C0.10853 9.50266 0.998156 9.1458 1.6707 9.10075C1.77998 9.09371 1.88999 9.09723 2 9.09723C6.59411 9.10216 14.8671 9.0923 19.4605 9.09723C19.561 9.09723 19.6615 9.09723 19.8272 9.09723C19.7282 8.99728 18.7498 9.7096 18.6838 9.64625C17.8631 8.85651 17.0351 8.0738 16.224 7.27561C15.503 6.56611 16.3706 5.32237 17.3387 5.0556C17.8697 4.9092 18.3245 5.05771 18.7132 5.43288C20.2167 6.88356 21.7238 8.33072 23.2303 9.77928C23.3469 9.8912 23.465 10.001 23.5794 10.115C24.1412 10.6746 24.1426 11.4158 23.5691 11.9697C22.5827 12.9228 21.5881 13.8695 20.5973 14.8183C19.9431 15.4447 19.2984 16.0803 18.6303 16.6934C17.8961 17.367 16.2731 16.849 15.9959 15.9311C15.8455 15.4335 15.8631 14.9654 16.2482 14.5987C17.06 13.8251 17.8675 13.0481 18.6794 12.2745C18.7432 12.2133 19.3974 12.4308 19.4708 12.3787C19.4546 12.3526 19.7128 13.0248 19.6967 12.9981Z" fill="#F8F8F8"/>
<path id="Vector_2" d="M22.9742 0.22955C22.525 0.138155 22.0702 0.0758081 21.6181 0H20.2607C20.1969 0.0141697 20.1339 0.0354243 20.0694 0.0403837C18.5915 0.15941 17.2092 0.590878 15.9332 1.33975C15.443 1.62739 14.9867 1.97455 14.5786 2.25157C15.0852 2.7631 15.5861 3.26896 16.0856 3.7734C16.6028 3.3476 17.0711 2.92463 17.7895 3.14568C18.3081 3.3058 18.7055 3.70043 19.0938 4.06034C19.1448 4.1071 19.8476 4.78229 19.8554 4.7752C21.1867 3.56511 22.1538 2.74539 23.6975 1.80735C24.1921 1.50695 24.7369 1.28874 25.2626 1.03085C24.5442 0.663852 23.7776 0.392502 22.9749 0.228841L22.9742 0.22955Z" fill="#F8F8F8"/>
<path id="Vector_3" d="M23.5495 24.1991V28.3026C23.6572 28.3026 23.7564 28.3026 23.8563 28.3026C25.2612 28.3026 26.6655 28.2984 28.0704 28.3048C28.7215 28.3076 29.1374 28.8864 28.9092 29.4575C28.7831 29.7728 28.5394 29.9492 28.2036 29.9917C28.1016 30.0044 27.9967 29.9988 27.8926 29.9988C24.4231 29.9988 20.9536 29.9988 17.4849 29.9988C16.8104 29.9988 16.413 29.6807 16.4165 29.145C16.42 28.6101 16.814 28.3019 17.4948 28.3019C18.8338 28.3019 20.1722 28.3019 21.5112 28.3019C21.6125 28.3019 21.7138 28.3019 21.83 28.3019V24.4371C21.7131 24.4371 21.6118 24.4343 21.5105 24.4371C17.599 24.5703 14.2294 23.2866 11.4075 20.5731C11.01 20.1905 10.9732 19.6754 11.3083 19.3169C11.6533 18.9485 12.1748 18.9563 12.5871 19.358C14.104 20.8373 15.8773 21.8689 17.9334 22.3825C20.661 23.0634 23.3129 22.8381 25.8698 21.64C28.2064 20.5447 29.9982 18.8571 31.2458 16.6077C32.3752 14.5708 32.847 12.3773 32.6671 10.0499C32.446 7.18549 31.3195 4.72846 29.3272 2.66534C29.1218 2.4528 28.9758 2.21971 29.0042 1.91364C29.0368 1.56294 29.2174 1.31001 29.5497 1.18886C29.9032 1.05991 30.2355 1.13289 30.4764 1.41841C31.0531 2.10139 31.6709 2.76028 32.1633 3.50136C33.8169 5.98815 34.57 8.73991 34.3603 11.7269C34.0281 16.4454 31.7949 20.0353 27.8104 22.5405C26.5996 23.3014 25.2704 23.8094 23.8698 24.1169C23.7692 24.1389 23.6707 24.1686 23.5517 24.1991H23.5495Z" fill="#F8F8F8"/>
<path id="Vector_4" d="M13.9234 16.8854C13.7129 16.4482 13.7349 15.9154 13.9467 15.4783C14.0466 15.2728 14.1841 15.0886 14.3286 14.9122C14.5064 14.6954 14.7041 14.4595 14.9181 14.2392C14.7835 14.2299 13.5181 14.2073 13.5181 14.2073C13.3644 14.434 13.2064 14.6274 13.064 14.8633C12.7012 15.4627 12.4306 16.0975 12.257 16.7791C12.1295 17.2828 12.1819 17.6923 12.6261 18.0395C12.8472 18.2131 13.0427 18.2818 13.3126 18.2464C13.9389 18.1649 14.5029 17.941 15.0669 17.6696C14.5823 17.6449 14.1338 17.3218 13.9234 16.8846V16.8854Z" fill="#F8F8F8"/>
<path id="Vector_5" d="M21.1719 5.71399C22.2764 4.8298 23.4142 3.99237 24.6768 3.33985C25.4448 2.94239 26.2503 2.66466 27.114 2.57894C27.425 2.54847 27.6864 2.59452 27.9627 2.8262C28.5047 3.28105 28.5104 3.79187 28.3325 4.39479C28.0718 5.28252 27.6446 6.08311 27.1196 6.83623C26.4487 7.79978 25.6892 8.68609 24.8907 9.53769" fill="#F8F8F8"/>
<path id="Vector_6" d="M24.7449 13.44C25.6227 12.3404 26.5515 11.2267 27.4237 10.0697C28.2965 8.91204 29.1177 7.7147 29.5775 6.229C30.3157 7.57088 30.6969 8.94109 30.7642 10.3892C30.8839 12.9589 30.1251 15.2502 28.502 17.2438C27.2416 15.9679 25.9854 14.6961 24.7456 13.4407L24.7449 13.44Z" fill="#F8F8F8"/>
<path id="Vector_7" d="M23.4533 14.6763C24.7207 15.9586 25.979 17.2311 27.2359 18.5021C24.2758 21.0647 19.8492 21.5677 16.3677 19.7278C16.4307 19.6938 16.4782 19.6576 16.532 19.6399C17.6175 19.2722 18.5782 18.6721 19.4666 17.9736C20.7249 16.9845 21.9399 15.9402 23.1734 14.9186C23.2669 14.8413 23.3569 14.7592 23.4525 14.6763H23.4533Z" fill="#F8F8F8"/>
<path id="Vector_8" d="M10.9497 14.1052C11.0808 14.6146 11.2841 15.017 11.5342 15.4513C11.7205 14.9859 11.9451 14.5473 12.1959 14.1272L10.9497 14.1052Z" fill="#F8F8F8"/>
<path id="Vector_9" d="M15.3225 7.95569C14.3816 7.00278 13.4464 6.05482 12.5006 5.09766C11.7779 5.91667 11.2678 6.87667 10.9575 7.88484C11.0326 7.8643 14.6601 7.96065 15.3218 7.9564L15.3225 7.95569Z" fill="#F8F8F8"/>
</g>
</svg>
