<svg width="35" height="30" viewBox="0 0 35 30" fill="none" xmlns="http://www.w3.org/2000/svg">
<g id="Group 96">
<path id="Vector" d="M22.0588 0C22.5192 0.077214 22.9824 0.140718 23.44 0.233807C24.2576 0.400503 25.0384 0.676886 25.7701 1.05069C25.2339 1.31336 24.6797 1.53562 24.176 1.84159C22.4629 2.88218 20.959 4.19337 19.4883 5.54425C19.2415 5.77084 18.994 5.99816 18.7653 6.20887C17.4793 4.90995 16.2006 3.61823 14.8894 2.29405C15.3058 2.01189 15.7698 1.6583 16.2692 1.36532C17.5688 0.602558 18.9774 0.163088 20.482 0.0418545C20.5477 0.0368031 20.6119 0.0151549 20.6768 0.000722331C21.138 0.000722331 21.5991 0.000722331 22.0595 0.000722331L22.0588 0Z" fill="#F8F8F8"/>
<path id="Vector_2" d="M23.1909 24.0916V28.2712C23.3006 28.2712 23.4016 28.2712 23.5034 28.2712C24.9344 28.2712 26.3646 28.2669 27.7956 28.2734C28.4588 28.2763 28.8824 28.8659 28.65 29.4475C28.5216 29.7686 28.2733 29.9483 27.9313 29.9916C27.8274 30.0046 27.7206 29.9988 27.6145 29.9988C24.0807 29.9988 20.5469 29.9988 17.0138 29.9988C16.3268 29.9988 15.922 29.6748 15.9256 29.1292C15.9292 28.5844 16.3304 28.2705 17.0239 28.2705C18.3878 28.2705 19.7509 28.2705 21.1148 28.2705C21.218 28.2705 21.3212 28.2705 21.4395 28.2705V24.334C21.3205 24.334 21.2173 24.3312 21.1141 24.334C17.13 24.4697 13.6979 23.1621 10.8237 20.3983C10.4189 20.0086 10.3813 19.484 10.7227 19.1188C11.0741 18.7436 11.6052 18.7515 12.0252 19.1607C13.5702 20.6675 15.3764 21.7181 17.4706 22.2413C20.2489 22.9348 22.9499 22.7053 25.5543 21.4851C27.9342 20.3694 29.7592 18.6505 31.03 16.3593C32.1802 14.2847 32.6608 12.0505 32.4775 9.67997C32.2524 6.76244 31.105 4.25984 29.0758 2.15846C28.8665 1.94198 28.7179 1.70456 28.7467 1.39282C28.7799 1.03561 28.9639 0.777994 29.3024 0.654596C29.6625 0.52326 30.0009 0.597588 30.2463 0.888403C30.8337 1.58405 31.4629 2.25516 31.9645 3.00998C33.6487 5.54289 34.4158 8.34569 34.2022 11.3881C33.8638 16.1941 31.5892 19.8506 27.5308 22.4022C26.2975 23.1773 24.9438 23.6947 23.5171 24.0079C23.4146 24.0302 23.3143 24.0605 23.1931 24.0916H23.1909Z" fill="#F8F8F8"/>
<path id="Vector_3" d="M15.577 14.0695C15.3606 14.3784 15.152 14.693 14.9557 15.0177C14.5769 15.6448 14.2933 16.3087 14.1121 17.021C13.9786 17.5478 14.0335 17.9757 14.4982 18.3394C14.7299 18.5205 14.9341 18.5927 15.2162 18.5559C15.9761 18.457 16.671 18.1813 17.3284 17.8039C18.4982 17.1328 19.533 16.2813 20.5296 15.3807C20.9265 15.0221 21.3118 14.6497 21.6863 14.2983C21.5442 14.1547 21.4107 14.0378 21.2757 13.9187C21.1105 13.9735 15.6117 14.0739 15.5763 14.0695H15.577Z" fill="#F8F8F8"/>
<path id="Vector_4" d="M27.9949 2.54374C27.7243 2.33807 27.4761 2.30632 27.1838 2.34962C26.3727 2.46941 25.6258 2.76816 24.9201 3.17805C23.7597 3.85133 22.7242 4.69274 21.7233 5.57673C21.2391 6.00394 20.7765 6.45567 20.3298 6.87277C20.4698 7.01421 20.6084 7.15421 20.7477 7.29493C20.9779 7.21194 21.221 7.16648 21.4657 7.16648C22.7155 7.16648 23.6414 8.1883 23.6955 9.3963C23.707 9.6597 23.663 9.91443 23.5743 10.1518C23.7128 10.2918 23.8521 10.4326 23.9906 10.5726C24.0123 10.5588 24.0383 10.548 24.0556 10.5293C25.2578 9.2159 26.4326 7.87944 27.383 6.36475C27.8434 5.63013 28.21 4.85583 28.4157 4.0072C28.5557 3.43062 28.5268 2.94929 27.9949 2.54446V2.54374Z" fill="#F8F8F8"/>
<path id="Vector_5" d="M24.7749 13.133C25.669 12.0131 26.615 10.8787 27.5034 9.70027C28.3924 8.52113 29.2288 7.30158 29.6971 5.78833C30.4491 7.15509 30.8373 8.55072 30.9058 10.0257C31.0278 12.6431 30.2549 14.9768 28.6017 17.0075C27.3179 15.7078 26.0385 14.4125 24.7756 13.1338L24.7749 13.133Z" fill="#F8F8F8"/>
<path id="Vector_6" d="M23.6269 14.3921C24.9179 15.6982 26.1995 16.9943 27.4797 18.2889C24.4647 20.899 19.956 21.4113 16.4099 19.5373C16.4741 19.5026 16.5225 19.4658 16.5773 19.4478C17.6829 19.0733 18.6614 18.4621 19.5663 17.7505C20.8479 16.7431 22.0855 15.6795 23.3419 14.6389C23.4371 14.5602 23.5288 14.4765 23.6262 14.3921H23.6269Z" fill="#F8F8F8"/>
<path id="Vector_7" d="M12.6099 14.0119C12.8025 14.6816 13.0861 15.3073 13.4549 15.8535C13.6656 15.1918 13.9449 14.5719 14.2674 13.978L12.6091 14.0119H12.6099Z" fill="#F8F8F8"/>
<path id="Vector_8" d="M16.7274 7.07408C16.8168 6.97161 16.9058 6.86914 16.9944 6.76666C15.8773 5.63515 14.7689 4.5123 13.6475 3.37646C12.7151 4.43365 12.1082 5.70515 11.8037 7.02429L16.7274 7.0748V7.07408Z" fill="#F8F8F8"/>
<path id="Vector_9" d="M4.30658 8.368C4.404 8.368 4.50142 8.368 4.59811 8.36727C9.16315 8.35068 15.4458 8.56997 20.0109 8.55409C20.8299 8.55121 21.6786 8.81749 21.6865 10.5826C21.6937 12.129 20.8205 12.4992 20.1588 12.5483C20.0513 12.5562 19.943 12.5526 19.8348 12.5533C15.3145 12.5699 9.07727 12.3506 4.5577 12.3665C4.45884 12.3665 4.35998 12.3665 4.19689 12.368C4.29431 12.4704 5.25407 11.7351 5.31902 11.7993C6.13013 12.6054 6.94917 13.4035 7.7509 14.2182C8.46387 14.942 7.61596 16.2215 6.66485 16.5C6.14311 16.653 5.69499 16.5022 5.31036 16.1197C3.82452 14.6389 2.33366 13.1632 0.844937 11.6853C0.730198 11.5713 0.613296 11.4587 0.5 11.3425C-0.0556551 10.7717 -0.0607066 10.0119 0.501443 9.44105C1.46771 8.45964 2.44117 7.48473 3.41176 6.50692C4.05257 5.86179 4.68399 5.20655 5.33778 4.57513C6.05725 3.88092 7.65636 4.40482 7.93347 5.34438C8.08429 5.85385 8.06842 6.33373 7.69173 6.71114C6.89649 7.50782 6.1056 8.3081 5.31108 9.1055C5.2483 9.16828 4.60389 8.94818 4.53172 9.0023C4.5476 9.029 4.28998 8.34202 4.30586 8.36872L4.30658 8.368Z" fill="#F8F8F8"/>
</g>
</svg>
