<svg width="31" height="30" viewBox="0 0 31 30" fill="none" xmlns="http://www.w3.org/2000/svg">
<g id="Group 75">
<path id="Vector" d="M30.025 6.91902C29.4611 9.8326 27.6908 12.0941 25.9711 14.3777C25.4189 15.1105 24.8117 15.8015 24.2155 16.4998C23.7764 17.0137 23.1567 17.0248 22.7198 16.524C21.0493 14.6068 19.478 12.614 18.2194 10.3943C17.6981 9.47574 17.2385 8.5278 17.0116 7.48661C16.7406 6.24569 16.9447 5.05104 17.4617 3.91806C18.3802 1.90396 19.9442 0.653499 22.0986 0.145385C22.3534 0.0851752 22.6133 0.0484618 22.871 0C23.2617 0 23.653 0 24.0437 0C24.1281 0.0198253 24.2111 0.0455247 24.2962 0.0587415C26.8735 0.471401 28.6571 1.88707 29.6065 4.3153C29.8128 4.84397 29.8884 5.42405 30.0243 5.97989V6.91828L30.025 6.91902ZM23.4702 9.37955C25.0144 9.36634 26.2913 8.07476 26.27 6.54748C26.2487 5.01065 24.9872 3.75725 23.4592 3.75505C21.9224 3.75285 20.6389 5.03782 20.6447 6.57244C20.6506 8.11294 21.9385 9.39277 23.4702 9.37955Z" fill="#3A3A3A"/>
<path id="Vector_2" d="M30.0248 25.7969C29.9029 26.2162 29.604 26.4416 29.2097 26.598C26.4636 27.6877 23.7226 28.7883 20.9786 29.8846C20.8809 29.9235 20.7803 29.9566 20.6592 29.9999V17.0268C20.8545 17.2486 21.019 17.4277 21.1746 17.615C21.5704 18.0908 22.0381 18.4689 22.6424 18.6356C23.7835 18.9499 24.7784 18.673 25.5678 17.7971C26.7977 16.4321 27.9417 14.9973 28.974 13.4752C29.328 12.9531 29.6745 12.4259 30.0248 11.9009V25.7955V25.7969Z" fill="#3A3A3A"/>
<path id="Vector_3" d="M9.38396 7.52417V7.86267C9.38396 14.0357 9.38175 20.2087 9.39057 26.3817C9.39057 26.6372 9.31714 26.7495 9.07997 26.8435C6.54087 27.848 4.00764 28.8657 1.47221 29.879C0.947941 30.0883 0.525002 30.0251 0.237903 29.6954C0.0315736 29.4575 0 29.1741 0 28.8723C0.00293708 24.311 0.00220281 19.7498 0.00220281 15.1885C0.00220281 14.1436 0.000734269 13.098 0.00220281 12.0531C0.00293708 11.4723 0.19091 11.1823 0.718849 10.9708C3.53404 9.84299 6.34996 8.71809 9.16661 7.59319C9.22829 7.56896 9.29291 7.55281 9.38396 7.52344V7.52417Z" fill="#3A3A3A"/>
<path id="Vector_4" d="M18.7665 29.7135C17.922 29.3758 17.1276 29.0564 16.3323 28.7384C14.7206 28.0937 13.1104 27.4468 11.4965 26.8095C11.329 26.7434 11.2563 26.6737 11.2563 26.4805C11.2622 20.2202 11.2608 13.9605 11.2615 7.70014C11.2615 7.65168 11.2659 7.60322 11.2696 7.52686C11.3804 7.56357 11.4796 7.59074 11.575 7.62892C12.8431 8.13483 14.1112 8.63927 15.3756 9.154C15.4887 9.20025 15.6194 9.29791 15.6634 9.40438C16.4043 11.1931 17.4404 12.8085 18.5726 14.3666C18.7114 14.5575 18.7716 14.7462 18.7716 14.9834C18.7657 19.7884 18.7672 24.5935 18.7672 29.3985V29.7128L18.7665 29.7135Z" fill="#3A3A3A"/>
</g>
</svg>
