<svg width="36" height="33" viewBox="0 0 36 33" fill="none" xmlns="http://www.w3.org/2000/svg">
<g id="Layer_1" clip-path="url(#clip0_197_1376)">
<path id="Vector" d="M2.95439e-06 22.9272C0.633666 20.8123 1.26513 18.6952 1.89879 16.5803C2.45985 14.7097 3.02091 12.8391 3.58196 10.9685C3.61056 10.8738 3.64357 10.7792 3.74258 10.6978C3.74258 10.821 3.74258 10.9421 3.74258 11.0653C3.74258 14.2057 3.72058 17.3462 3.75138 20.4866C3.77338 22.738 4.76128 24.4678 6.73708 25.5879C7.62377 26.0897 8.59406 26.257 9.60836 26.257C16.6139 26.2482 23.6194 26.2526 30.6227 26.2526H31.1375C31.1001 26.3912 31.0737 26.4946 31.0407 26.5981C30.6249 27.9251 30.209 29.2544 29.791 30.5814C29.2145 32.4102 27.4698 33.3675 25.6062 32.8702C19.923 31.3517 14.242 29.8265 8.56106 28.3058C6.61826 27.7865 4.67767 27.2561 2.73268 26.7455C1.28053 26.3648 0.37404 25.4713 0.0550085 23.9946C0.0484078 23.9638 0.0176047 23.9396 -0.00219727 23.911C-0.00219727 23.5831 -0.00219727 23.2552 -0.00219727 22.9272H2.95439e-06Z" fill="#BBBBBB"/>
<path id="Vector_2" d="M20.9835 23.999C17.2805 23.999 13.5776 24.0034 9.87459 23.999C7.9714 23.9946 6.50385 22.8524 6.09681 21.0588C6.0242 20.7419 5.9978 20.4096 5.9978 20.0839C5.9912 14.7031 5.9912 9.32451 5.9956 3.94371C5.9956 1.59773 7.60836 0 9.96039 0C17.3201 0 24.6777 0 32.0374 0C34.4048 0 36 1.59773 36 3.97232C36 9.36412 36.0022 14.7559 36 20.1477C36 22.091 34.7393 23.6139 32.8647 23.9462C32.5787 23.9968 32.2816 23.9968 31.989 23.9968C28.3212 23.999 24.6535 23.9968 20.9857 23.9968L20.9835 23.999ZM8.9989 17.892C9.14631 17.7533 9.23872 17.6719 9.32673 17.5839C10.5457 16.3669 11.7624 15.1476 12.9813 13.9306C14.2288 12.6828 15.7624 12.6806 17.0099 13.9262C17.5556 14.472 18.0902 15.031 18.6535 15.6076C19.2805 14.855 19.8724 14.1441 20.4642 13.4355C21.7008 11.95 22.9373 10.4645 24.176 8.98119C24.8647 8.15812 25.7294 7.8038 26.7987 8.01947C27.4323 8.14712 27.934 8.48823 28.3498 8.97899C29.8086 10.6912 31.2761 12.3945 32.7371 14.1067C32.8009 14.1815 32.8251 14.2872 32.8691 14.3774C32.9087 14.3444 32.9505 14.3092 32.9901 14.2762C32.9901 14.1727 32.9901 14.0671 32.9901 13.9637C32.9901 10.6361 32.9901 7.30864 32.9901 3.97893C32.9901 3.24388 32.7569 3.0128 32.0242 3.0128C24.6777 3.0128 17.3333 3.0128 9.9868 3.0128C9.22992 3.0128 8.9967 3.24608 8.9967 3.99653C8.9967 7.52431 8.9967 11.0499 8.9967 14.5777C8.9967 15.656 8.9967 16.7322 8.9967 17.8986L8.9989 17.892Z" fill="#BBBBBB"/>
<path id="Vector_3" d="M13.516 10.4931C11.8636 10.5019 10.5193 9.17925 10.4973 7.5265C10.4752 5.89356 11.8284 4.5181 13.4653 4.50269C15.1287 4.48729 16.4929 5.83194 16.5017 7.49349C16.5105 9.13524 15.1661 10.4865 13.516 10.4953V10.4931Z" fill="#BBBBBB"/>
</g>
<defs>
<clipPath id="clip0_197_1376">
<rect width="36" height="33" fill="white"/>
</clipPath>
</defs>
</svg>
