<svg width="43" height="43" viewBox="0 0 43 43" fill="none" xmlns="http://www.w3.org/2000/svg">
<g id="Group 36">
<g id="Group 37">
<path id="Vector" d="M35.4234 0.00256261C35.6528 0.198602 35.8962 0.380547 36.1089 0.593244C37.8925 2.36913 39.6709 4.14886 41.4494 5.9286C42.0414 6.52056 42.0401 6.86651 41.4417 7.4636C38.2743 10.631 35.1057 13.7984 31.937 16.9645C31.3194 17.5821 30.994 17.5808 30.3725 16.9606C29.6601 16.2482 28.9477 15.5358 28.2699 14.8567C27.619 15.5063 26.9873 16.1355 26.2429 16.8799C26.3044 16.9132 26.4684 16.9568 26.5722 17.0606C28.0444 18.5213 29.5102 19.9883 30.976 21.4554C31.5347 22.0154 31.5372 22.3793 30.9876 22.9328C30.4225 23.5004 29.8536 24.0642 29.2053 24.7112C29.6037 25.079 29.9753 25.4429 30.3751 25.7734C30.4609 25.8452 30.6557 25.8324 30.7851 25.7978C32.5687 25.3288 34.3036 25.4582 35.9372 26.3116C36.5894 26.6524 37.1788 27.1291 37.7528 27.5993C38.1744 27.944 38.118 28.4065 37.6708 28.855C36.4997 30.0312 35.326 31.2023 34.1485 32.3722C34.0422 32.4785 33.9025 32.5515 33.791 32.631C34.3394 33.3857 34.3945 33.7637 34.0473 34.0865C33.7026 34.4082 33.308 34.339 32.6007 33.7393C32.5366 33.8597 32.4931 34.0238 32.3906 34.1275C31.2336 35.2974 30.0701 36.4608 28.9054 37.6229C28.3365 38.1906 27.9445 38.1765 27.4153 37.5717C25.706 35.619 25.164 33.3793 25.7931 30.8641C25.8649 30.5771 25.8393 30.381 25.6035 30.1811C25.2986 29.9223 25.0295 29.6212 24.745 29.3393C24.7258 29.3201 24.6989 29.3098 24.64 29.2714C24.0724 29.8416 23.5009 30.4207 22.9243 30.9948C22.3849 31.5316 22.012 31.5342 21.4777 31.0012C20.0093 29.5366 18.5435 28.0683 17.0777 26.6024C16.9714 26.4961 16.8599 26.3936 16.7843 26.3206C16.1411 26.9651 15.5107 27.5955 14.8354 28.2707C15.2185 28.6487 15.6503 29.0715 16.0796 29.4969C16.4332 29.8467 16.792 30.1927 17.1328 30.5553C17.5198 30.9678 17.5121 31.3471 17.1341 31.7635C17.079 31.825 17.0175 31.8814 16.9586 31.9404C13.8001 35.0975 10.6417 38.2559 7.48459 41.413C6.84393 42.0537 6.53001 42.055 5.89192 41.4169C4.08272 39.609 2.27352 37.7998 0.4656 35.9918C-0.15327 35.373 -0.154551 35.0398 0.457912 34.4274C3.6253 31.26 6.79396 28.0926 9.96135 24.9252C10.5623 24.3243 10.9018 24.3217 11.4963 24.915C12.2177 25.6363 12.9378 26.3616 13.6246 27.0509C14.287 26.3936 14.92 25.7645 15.6503 25.0393C15.5286 24.9534 15.3377 24.8547 15.1942 24.71C14.0051 23.5145 12.7777 22.3524 11.6565 21.0954C10.4777 19.7744 10.3765 17.8473 11.2683 16.3008C11.3157 16.2175 11.358 16.1316 11.4284 15.9996C10.9249 15.5012 10.4136 14.9989 9.90753 14.4928C9.33095 13.9162 9.33223 13.5652 9.90753 12.9886C10.9428 11.9507 11.9781 10.9142 13.0173 9.88014C13.558 9.34199 13.9231 9.34071 14.4626 9.88014C14.97 10.3875 15.4697 10.9026 15.9438 11.3844C16.5062 11.173 17.0034 10.9154 17.53 10.8001C19.0996 10.4606 20.4463 10.9282 21.5751 12.0532C22.6616 13.1372 23.7482 14.2212 24.8283 15.3116C24.9334 15.4179 24.9898 15.573 25.059 15.6896C25.7893 14.9579 26.412 14.3327 27.0693 13.6728C27.0014 13.5998 26.9143 13.4998 26.8208 13.4063C26.157 12.74 25.4882 12.0789 24.8296 11.4087C24.353 10.9244 24.3542 10.5362 24.8386 10.0518C28.0636 6.82423 31.2899 3.5979 34.5201 0.375422C34.6649 0.231916 34.8456 0.124287 35.0096 0C35.1479 0 35.2863 0 35.4247 0L35.4234 0.00256261ZM21.069 13.7651C18.6217 16.2111 16.1846 18.6481 13.8065 21.0249C15.9092 23.1275 18.0566 25.2737 20.1298 27.3469C22.5322 24.9457 24.968 22.5087 27.3922 20.0857C25.2986 17.9921 23.1588 15.8523 21.069 13.7638V13.7651ZM28.1738 36.0764C30.8133 33.4382 33.4361 30.8154 36.0564 28.1951C34.3048 26.7178 31.0465 26.5243 28.8478 28.5897C26.7554 30.5553 26.4479 33.8764 28.1738 36.0777V36.0764ZM29.7165 7.4226C31.3079 9.0127 32.8967 10.6028 34.4753 12.1801C35.1902 11.4587 35.9257 10.7194 36.6138 10.0249C35.0365 8.44636 33.44 6.84985 31.864 5.27385C31.1657 5.97216 30.4366 6.7025 29.7165 7.42388V7.4226ZM12.1575 34.4773C10.5841 32.9039 8.98627 31.3061 7.4218 29.7416C6.7158 30.4592 5.98546 31.2023 5.31662 31.8827C6.8734 33.4408 8.46863 35.036 10.0331 36.6005C10.725 35.9098 11.4553 35.1795 12.1575 34.4773ZM39.9349 6.72941C38.341 5.13547 36.7457 3.54024 35.1966 1.99243C34.5073 2.68433 33.7821 3.4134 33.1145 4.08352C34.6739 5.64415 36.2704 7.23937 37.8489 8.81922C38.5332 8.13372 39.252 7.41363 39.9336 6.72941H39.9349ZM26.4312 10.6963C28.0303 12.2928 29.6268 13.8868 31.1631 15.4205C31.8512 14.735 32.5802 14.0098 33.2452 13.3473C31.6833 11.7854 30.0868 10.1902 28.5172 8.6219C27.833 9.30227 27.1116 10.0198 26.4312 10.6976V10.6963ZM8.64417 28.5257C10.224 30.1055 11.8192 31.6995 13.344 33.2255C14.0282 32.5426 14.7534 31.8174 15.453 31.119C13.9026 29.5661 12.3138 27.976 10.7506 26.4115C10.0408 27.1239 9.31429 27.853 8.64417 28.5257ZM1.96857 35.2013C3.53561 36.7696 5.13211 38.3648 6.68761 39.9216C7.38592 39.2259 8.11499 38.4994 8.80049 37.8151C7.23345 36.2455 5.63823 34.649 4.08272 33.0923C3.38185 33.7918 2.65279 34.5183 1.96857 35.2013ZM19.7787 12.6106C18.9856 12.0289 17.6466 12.0725 16.8022 12.7836C16.2436 13.2538 15.7349 13.7843 15.2185 14.3032C14.3998 15.1245 13.5695 15.9369 12.7879 16.7941C12.1114 17.5359 11.9692 19.0287 12.6111 19.7705C14.9994 17.3847 17.3903 14.9964 19.7787 12.6106ZM22.1837 29.4815C24.6208 27.0445 27.0591 24.6075 29.4692 22.196C29.1899 21.9013 28.8875 21.5836 28.6223 21.303C26.1763 23.749 23.7392 26.1847 21.315 28.609C21.5917 28.887 21.8929 29.1894 22.1837 29.4815ZM13.7438 11.4036C12.9686 12.1801 12.1793 12.9694 11.4143 13.7356C11.75 14.0879 12.1075 14.4646 12.4484 14.8221C13.2376 14.0316 14.0256 13.2423 14.7893 12.4773C14.4498 12.1288 14.0871 11.7573 13.7425 11.4036H13.7438ZM26.512 28.8486C27.291 28.0734 28.0816 27.2854 28.8721 26.4974C28.6799 26.2975 28.4339 26.0425 28.2251 25.8273C27.4217 26.6345 26.6311 27.4289 25.8726 28.1925C26.0853 28.4104 26.3313 28.6641 26.512 28.8486Z" fill="#3A3A3A"/>
<path id="Vector_2" d="M42.4757 34.2621C42.2835 35.0347 42.1528 35.8304 41.8863 36.5774C40.6537 40.0318 37.2583 42.4253 33.6001 42.4714C33.2234 42.4765 32.8647 42.3868 32.7647 42.0101C32.7007 41.7667 32.7506 41.4156 32.8941 41.2183C33.0197 41.0466 33.3413 40.9889 33.5873 40.9377C34.4202 40.7609 35.2915 40.7083 36.0871 40.4303C38.833 39.4706 40.7716 36.7901 40.9138 33.8879C40.9215 33.7367 40.9382 33.5856 40.951 33.4344C40.9804 33.0666 41.1547 32.7988 41.5186 32.7066C41.8799 32.6143 42.1669 32.7514 42.3707 33.0641C42.3989 33.1076 42.4399 33.1435 42.4744 33.1832V34.2621H42.4757Z" fill="#3A3A3A"/>
<path id="Vector_3" d="M33.6334 39.7115C33.0671 39.7371 32.693 39.4462 32.6814 38.9696C32.6686 38.4865 33.0043 38.2085 33.6347 38.1688C35.5387 38.0458 36.9251 37.1207 37.7311 35.4024C37.9758 34.8797 38.0296 34.2672 38.1641 33.6932C38.1898 33.5868 38.1782 33.4728 38.1987 33.3652C38.2884 32.9013 38.6126 32.6412 39.0354 32.6874C39.4454 32.7322 39.7555 33.0666 39.7068 33.533C39.6389 34.1737 39.5748 34.8348 39.3698 35.4396C38.5178 37.9625 36.2947 39.5923 33.6334 39.7115Z" fill="#3A3A3A"/>
<path id="Vector_4" d="M36.9277 33.6676C36.8047 35.4857 35.3581 36.8823 33.5412 36.9387C33.0658 36.9528 32.7353 36.6991 32.6879 36.2814C32.6379 35.8407 32.9185 35.5062 33.4003 35.4293C34.77 35.2128 35.2133 34.7695 35.4311 33.3959C35.508 32.9141 35.8437 32.6348 36.2845 32.6861C36.7381 32.7386 36.9674 33.0884 36.9277 33.6663V33.6676Z" fill="#3A3A3A"/>
</g>
</g>
</svg>
