<svg width="44" height="44" viewBox="0 0 44 44" fill="none" xmlns="http://www.w3.org/2000/svg">
<g id="Group 43">
<path id="Vector" d="M38.0778 44.0018C37.526 44.0268 37.1615 43.7434 37.1502 43.279C37.1378 42.8084 37.4648 42.5375 38.079 42.4988C39.934 42.379 41.2847 41.4777 42.0699 39.8037C42.3084 39.2943 42.3608 38.6976 42.4919 38.1384C42.5168 38.0348 42.5056 37.9237 42.5256 37.8188C42.6129 37.3669 42.9288 37.1135 43.3407 37.1584C43.7402 37.2021 44.0423 37.5279 43.9948 37.9823C43.9287 38.6065 43.8663 39.2506 43.6665 39.8399C42.8364 42.2978 40.6705 43.8857 38.0778 44.0018Z" fill="#F8F8F8"/>
<path id="Vector_2" d="M41.2886 38.1135C41.1688 39.8848 39.7594 41.2455 37.9893 41.3004C37.5262 41.3142 37.2041 41.067 37.1579 40.6601C37.1092 40.2306 37.3826 39.9048 37.852 39.8299C39.1865 39.6189 39.6184 39.187 39.8306 37.8488C39.9055 37.3794 40.2326 37.1073 40.662 37.1572C41.1039 37.2084 41.3273 37.5492 41.2886 38.1122V38.1135Z" fill="#F8F8F8"/>
<g id="Group">
<path id="Vector_3" d="M20.1208 25.946C19.7325 25.7388 19.3193 25.6227 19.0522 25.3593C16.3945 22.7353 13.7555 20.0913 11.1228 17.4423C10.5124 16.8282 10.5136 15.9668 11.1215 15.3489C12.5184 13.9295 13.9278 12.5202 15.3484 11.1233C15.9826 10.4991 16.8414 10.5041 17.4768 11.1358C20.1145 13.7585 22.7448 16.3887 25.3688 19.0252C26.0117 19.6706 26.0141 20.5432 25.3738 21.1936C23.9869 22.6017 22.5925 24.0036 21.1719 25.378C20.9122 25.6301 20.514 25.74 20.122 25.946H20.1208ZM14.2773 16.9992C14.4471 16.9255 14.5857 16.9043 14.6656 16.8244C15.3883 16.1004 16.1199 15.3826 16.799 14.6199C16.9138 14.4913 16.8751 14.1031 16.7628 13.9245C16.6092 13.6761 16.2822 13.6761 16.0662 13.8846C15.3297 14.5949 14.6006 15.3152 13.9016 16.0617C13.7905 16.1803 13.783 16.4811 13.8492 16.6509C13.9066 16.8019 14.1325 16.8893 14.2761 17.0004L14.2773 16.9992Z" fill="#F8F8F8"/>
<path id="Vector_4" d="M36.721 25.6538C32.9973 29.3364 29.3009 32.9915 25.6121 36.6379C23.7559 34.0139 23.7471 29.616 26.6844 26.6724C29.6005 23.7501 34.0171 23.7401 36.721 25.6526V25.6538Z" fill="#F8F8F8"/>
<path id="Vector_5" d="M40.3687 27.8983C40.2527 28.1205 40.1341 28.5736 39.8494 28.8607C36.2118 32.5321 32.5542 36.1835 28.8941 39.8323C28.2062 40.5177 27.1701 40.5014 26.506 39.8348C25.8407 39.1657 25.8307 38.1458 26.521 37.448C30.1 33.8291 33.6864 30.2152 37.2741 26.605C37.8546 26.0208 38.6648 25.8498 39.3289 26.1481C39.9917 26.4452 40.3038 26.9833 40.3675 27.8983H40.3687Z" fill="#F8F8F8"/>
<path id="Vector_6" d="M30.2885 11.4479C31.2497 12.4128 32.2871 13.4552 33.3019 14.4751C32.5654 15.2378 31.8289 16.058 31.0262 16.807C30.5282 17.2726 29.8228 17.1939 29.2973 16.6896C28.557 15.9806 27.8405 15.2465 27.1602 14.5712C28.2225 13.5101 29.2698 12.464 30.2885 11.4479Z" fill="#F8F8F8"/>
<path id="Vector_7" d="M3.38812 36.4819C2.60542 35.7217 1.79026 34.9789 1.03627 34.18C0.576881 33.6931 0.633056 32.9978 1.11866 32.491C1.8377 31.7395 2.58545 31.0142 3.28826 30.3114C4.33935 31.375 5.38046 32.4286 6.39161 33.4522C5.44163 34.4097 4.40676 35.4545 3.38812 36.4832V36.4819Z" fill="#F8F8F8"/>
<path id="Vector_8" d="M30.3494 3.37738C31.0946 2.60592 31.8349 1.78576 32.6351 1.03052C33.1057 0.584866 33.8035 0.631055 34.2928 1.09793C35.0568 1.8282 35.7821 2.59843 36.4874 3.31497C35.4488 4.35483 34.4089 5.39594 33.3803 6.42581C32.3991 5.43838 31.3618 4.39478 30.3506 3.37738H30.3494Z" fill="#F8F8F8"/>
<path id="Vector_9" d="M26.2186 7.37207C27.2997 8.45437 28.3395 9.49548 29.3382 10.4954C28.3333 11.5103 27.2972 12.5564 26.286 13.5763C25.5083 12.8273 24.6881 12.0908 23.9354 11.2906C23.4673 10.7925 23.5447 10.0884 24.049 9.56414C24.758 8.82388 25.4896 8.10609 26.2186 7.37207Z" fill="#F8F8F8"/>
<path id="Vector_10" d="M13.6358 26.2043C12.5622 27.2804 11.5223 28.3215 10.5062 29.3402C9.49754 28.3265 8.46018 27.2829 7.44653 26.263C8.18804 25.4965 8.9283 24.6801 9.72474 23.9236C10.1704 23.5005 10.8208 23.5416 11.3139 23.9149C11.4374 24.0085 11.5461 24.1209 11.6559 24.2295C12.3263 24.8948 12.9941 25.5627 13.6358 26.2031V26.2043Z" fill="#F8F8F8"/>
<path id="Vector_11" d="M14.5033 33.3486C13.4472 32.2912 12.4161 31.2601 11.4199 30.2614C12.4348 29.2528 13.4747 28.2179 14.6456 27.0532C14.8204 27.2717 15.0413 27.5888 15.3022 27.8671C15.7491 28.3427 16.231 28.7847 16.6804 29.2578C17.2359 29.8432 17.2646 30.566 16.7216 31.1365C16.005 31.8893 15.2511 32.6071 14.5033 33.3473V33.3486Z" fill="#F8F8F8"/>
<path id="Vector_12" d="M37.3779 10.4179C36.353 9.38431 35.3156 8.33821 34.292 7.30584C35.2757 6.31216 36.3043 5.27355 37.3916 4.17627C37.8422 4.63441 38.2966 5.09379 38.7498 5.55443C39.0556 5.86526 39.3777 6.16237 39.6611 6.49193C40.1017 7.00249 40.1417 7.6691 39.6873 8.15221C38.942 8.9424 38.1381 9.67767 37.3791 10.4179H37.3779Z" fill="#F8F8F8"/>
<path id="Vector_13" d="M4.23584 37.3032C5.2757 36.2983 6.31681 35.2934 7.35417 34.291C8.33911 35.3059 9.37023 36.3695 10.3876 37.4168C9.6898 38.1359 8.9458 38.951 8.14686 39.7063C7.70121 40.127 7.01088 40.1107 6.56523 39.6851C5.78003 38.9336 5.04226 38.1321 4.23709 37.302L4.23584 37.3032Z" fill="#F8F8F8"/>
<path id="Vector_14" d="M9.97065 14.9444C8.79846 13.9345 8.74354 12.6937 9.80961 11.6201C10.4126 11.0122 11.0167 10.4055 11.6222 9.80131C12.6833 8.74397 13.9441 8.80139 14.9465 9.96484C13.2887 11.6239 11.6284 13.2854 9.97065 14.9444Z" fill="#F8F8F8"/>
<path id="Vector_15" d="M32.5226 7.42822C31.7886 8.13477 30.9946 8.89875 30.2282 9.63901C29.2182 8.64159 28.1709 7.60673 27.156 6.60557C27.9225 5.84034 28.6989 5.06388 29.4891 4.27368C30.4691 5.29357 31.4802 6.34466 32.5226 7.42946V7.42822Z" fill="#F8F8F8"/>
<path id="Vector_16" d="M34.1596 13.5899C33.151 12.5788 32.1186 11.5452 31.1174 10.5427C31.8739 9.78127 32.6466 9.00231 33.3844 8.2583C34.3806 9.26071 35.4154 10.3018 36.4104 11.303C35.7138 12.0108 34.9448 12.7922 34.1596 13.5899Z" fill="#F8F8F8"/>
<path id="Vector_17" d="M6.60484 27.1693C7.59976 28.1642 8.63213 29.1978 9.65077 30.2165C8.8843 30.9767 8.10284 31.7507 7.37631 32.4722C6.35892 31.481 5.30907 30.4562 4.25049 29.4238C5.03694 28.6711 5.81839 27.9221 6.60484 27.1693Z" fill="#F8F8F8"/>
<path id="Vector_18" d="M13.5459 34.2497C12.8256 34.9625 12.0541 35.7253 11.3139 36.458C10.294 35.4481 9.24789 34.412 8.21802 33.3909C8.97326 32.6369 9.75347 31.8592 10.4588 31.1564C11.4812 32.18 12.5273 33.2299 13.5459 34.2497Z" fill="#F8F8F8"/>
<path id="Vector_19" d="M25.5722 22.7277C26.1502 23.3057 26.7869 23.9423 27.3661 24.5203C26.4386 25.4441 25.4898 26.389 24.5873 27.2866C24.0418 26.7361 23.4026 26.0919 22.8047 25.489C23.6598 24.6364 24.6123 23.6852 25.5722 22.7264V22.7277Z" fill="#F8F8F8"/>
<path id="Vector_20" d="M34.76 35.5496C35.0384 35.2749 35.2793 35.0365 35.5901 34.7281C35.8585 35.0128 36.1357 35.3211 36.4253 35.6132C37.2367 36.4309 35.9696 35.1863 36.7985 35.9865C36.9346 36.1175 37.1606 36.2062 37.3528 36.2199C38.0032 36.2686 38.485 36.7317 38.48 37.3534C38.475 37.9488 37.9807 38.4544 37.384 38.4744C36.7736 38.4956 36.2792 38.0013 36.2243 37.3696C36.2068 37.1636 36.1144 36.9202 35.9734 36.7754C34.8961 35.6744 35.8748 36.6568 34.76 35.5471V35.5496Z" fill="#F8F8F8"/>
<path id="Vector_21" d="M24.4896 13.5314C25.3572 14.4239 26.2972 15.3914 27.2173 16.3389C26.7716 16.782 26.2798 17.2726 25.8066 17.7432C24.8929 16.8207 23.9454 15.8633 22.9717 14.8808C23.4373 14.4664 23.9454 14.0145 24.4884 13.5314H24.4896Z" fill="#F8F8F8"/>
<path id="Vector_22" d="M17.7068 25.8225C17.2649 26.2656 16.773 26.7575 16.3424 27.1907C15.4036 26.2769 14.4374 25.3356 13.4712 24.3956C13.9493 23.9075 14.4249 23.4219 14.8768 22.9613C15.8368 23.9325 16.783 24.89 17.7068 25.8237V25.8225Z" fill="#F8F8F8"/>
</g>
</g>
</svg>
