<svg width="20" height="20" viewBox="0 0 20 20" fill="none" xmlns="http://www.w3.org/2000/svg">
<rect width="20" height="20" rx="10" fill="#FEBD70"/>
<path d="M7.93091 13.063C7.46891 13.063 7.05491 12.988 6.68891 12.838C6.32291 12.688 6.02891 12.466 5.80691 12.172C5.59091 11.878 5.47691 11.524 5.46491 11.11H7.10291C7.12691 11.344 7.20791 11.524 7.34591 11.65C7.48391 11.77 7.66391 11.83 7.88591 11.83C8.11391 11.83 8.29391 11.779 8.42591 11.677C8.55791 11.569 8.62391 11.422 8.62391 11.236C8.62391 11.08 8.56991 10.951 8.46191 10.849C8.35991 10.747 8.23091 10.663 8.07491 10.597C7.92491 10.531 7.70891 10.456 7.42691 10.372C7.01891 10.246 6.68591 10.12 6.42791 9.994C6.16991 9.868 5.94791 9.682 5.76191 9.436C5.57591 9.19 5.48291 8.869 5.48291 8.473C5.48291 7.885 5.69591 7.426 6.12191 7.096C6.54791 6.76 7.10291 6.592 7.78691 6.592C8.48291 6.592 9.04391 6.76 9.46991 7.096C9.89591 7.426 10.1239 7.888 10.1539 8.482H8.48891C8.47691 8.278 8.40191 8.119 8.26391 8.005C8.12591 7.885 7.94891 7.825 7.73291 7.825C7.54691 7.825 7.39691 7.876 7.28291 7.978C7.16891 8.074 7.11191 8.215 7.11191 8.401C7.11191 8.605 7.20791 8.764 7.39991 8.878C7.59191 8.992 7.89191 9.115 8.29991 9.247C8.70791 9.385 9.03791 9.517 9.28991 9.643C9.54791 9.769 9.76991 9.952 9.95591 10.192C10.1419 10.432 10.2349 10.741 10.2349 11.119C10.2349 11.479 10.1419 11.806 9.95591 12.1C9.77591 12.394 9.51191 12.628 9.16391 12.802C8.81591 12.976 8.40491 13.063 7.93091 13.063ZM12.721 11.812H14.737V13H11.182V6.682H12.721V11.812Z" fill="white"/>
</svg>
