<svg width="38" height="44" viewBox="0 0 38 44" fill="none" xmlns="http://www.w3.org/2000/svg">
<g id="Group 45">
<path id="Vector" d="M0 43.2222V40.7023H5.28825C5.91319 37.4838 6.53285 34.2908 7.16731 31.0194C7.34496 31.175 7.47714 31.2851 7.60404 31.4015C10.1789 33.7648 13.1736 35.3174 16.5933 36.0349C16.919 36.1037 17.0163 36.2551 17.0522 36.5609C17.213 37.9262 17.3959 39.2894 17.5736 40.679H22.7962V43.2222H0Z" fill="#F8F8F8"/>
<path id="Vector_2" d="M7.94457 6.7312C11.5335 10.3232 15.1013 13.8941 18.6924 17.4883C19.3141 16.8628 19.9158 16.2733 20.4932 15.6595C20.5757 15.5716 20.5915 15.3504 20.5482 15.2224C19.8852 13.2835 20.5894 11.4112 22.3976 10.5106C23.7945 9.81524 25.166 9.96235 26.3937 10.9244C27.6531 11.9118 28.111 13.2475 27.7366 14.7937C27.2555 16.7771 25.3468 17.991 23.4255 17.6195C23.3567 17.6058 23.2764 17.6079 23.2214 17.573C22.6176 17.1803 22.2168 17.4534 21.8097 17.9307C21.41 18.3985 20.9352 18.8017 20.4615 19.2642C24.0663 22.869 27.6362 26.4377 31.2071 30.0086C25.2781 35.0358 16.2804 35.4708 9.8321 30.016C2.96933 24.2141 2.0335 13.9873 7.94457 6.7312Z" fill="#F8F8F8"/>
<path id="Vector_3" d="M37.9737 13.8793H35.4654C35.4062 10.7529 34.3266 8.04039 32.1197 5.83267C29.9202 3.63447 27.2248 2.55072 24.0938 2.49039V0.00538017C31.0411 -0.203115 37.9747 5.66968 37.9747 13.8783L37.9737 13.8793Z" fill="#F8F8F8"/>
<path id="Vector_4" d="M30.4111 13.8646C30.3625 10.7509 28.0086 7.68166 24.0845 7.51762V5.08658C28.3206 4.83046 32.9564 8.62042 32.9046 13.8646H30.4122H30.4111Z" fill="#F8F8F8"/>
</g>
</svg>
