<svg width="21" height="20" viewBox="0 0 21 20" fill="none" xmlns="http://www.w3.org/2000/svg">
    <g clip-path="url(#clip0_197_1804)">
        <rect x="0.289917" width="20" height="20" rx="10" fill="#73BCFF"/>
        <path d="M7.15674 6.608C6.79674 6.608 6.50074 6.504 6.26874 6.296C6.04474 6.08 5.93274 5.816 5.93274 5.504C5.93274 5.184 6.04474 4.92 6.26874 4.712C6.50074 4.496 6.79674 4.388 7.15674 4.388C7.50874 4.388 7.79674 4.496 8.02074 4.712C8.25274 4.92 8.36874 5.184 8.36874 5.504C8.36874 5.816 8.25274 6.08 8.02074 6.296C7.79674 6.504 7.50874 6.608 7.15674 6.608ZM8.17674 7.304V14H6.12474V7.304H8.17674ZM14.6098 11.27H12.8698V13.05H11.2498V11.27H9.5098V9.74H11.2498V7.95H12.8698V9.74H14.6098V11.27Z" fill="#F8F8F8"/>
    </g>
    <defs>
        <clipPath id="clip0_197_1804">
            <rect x="0.289917" width="20" height="20" rx="10" fill="white"/>
        </clipPath>
    </defs>
</svg>
